<?xml version="1.0" encoding="UTF-8"?><svg id="Layer_1" xmlns="http://www.w3.org/2000/svg" xmlns:xlink="http://www.w3.org/1999/xlink" viewBox="0 0 256 256"><defs><style>.cls-1{fill:url(#radial-gradient-20);}.cls-2{fill:url(#radial-gradient-21);}.cls-3{fill:url(#radial-gradient-10);}.cls-4{fill:url(#radial-gradient-19);}.cls-5{fill:url(#radial-gradient-18);}.cls-6{fill:url(#radial-gradient-17);}.cls-7{fill:url(#radial-gradient-11);}.cls-8{fill:url(#radial-gradient-16);}.cls-9{fill:url(#radial-gradient-15);}.cls-10{fill:url(#radial-gradient-12);}.cls-11{fill:url(#radial-gradient-14);}.cls-12{fill:url(#radial-gradient-13);}.cls-13{fill:url(#radial-gradient-6);}.cls-14{fill:url(#radial-gradient-5);}.cls-15{fill:url(#radial-gradient-3);}.cls-16{fill:url(#radial-gradient-4);}.cls-17{fill:url(#radial-gradient-9);}.cls-18{fill:url(#radial-gradient-8);}.cls-19{fill:url(#radial-gradient-7);}.cls-20{fill:url(#radial-gradient-2);}.cls-21{fill:url(#radial-gradient);}.cls-22{fill:#000050;font-family:SourceCodePro-Bold, 'Source Code Pro';font-size:90px;}</style><radialGradient id="radial-gradient" cx="127.76" cy="128" fx="127.76" fy="128" r="128" gradientTransform="matrix(1, 0, 0, 1, 0, 0)" gradientUnits="userSpaceOnUse"><stop offset="0" stop-color="#ffffa0"/><stop offset=".15" stop-color="#f7f7a1"/><stop offset="1" stop-color="#0000b4"/></radialGradient><radialGradient id="radial-gradient-2" cx="129.9" cy="127.26" fx="129.9" fy="127.26" r="104.34" gradientTransform="matrix(1, 0, 0, 1, 0, 0)" gradientUnits="userSpaceOnUse"><stop offset="0" stop-color="#ffffa0"/><stop offset="1" stop-color="#0000b4"/></radialGradient><radialGradient id="radial-gradient-3" cx="129.9" cy="127.26" fx="129.9" fy="127.26" r="103.11" xlink:href="#radial-gradient-2"/><radialGradient id="radial-gradient-4" cx="129.9" cy="127.26" fx="129.9" fy="127.26" r="87.52" xlink:href="#radial-gradient-2"/><radialGradient id="radial-gradient-5" cx="129.9" cy="127.26" fx="129.9" fy="127.26" r="108.74" xlink:href="#radial-gradient-2"/><radialGradient id="radial-gradient-6" cx="129.9" cy="127.26" fx="129.9" fy="127.26" r="90.63" xlink:href="#radial-gradient-2"/><radialGradient id="radial-gradient-7" cx="129.9" cy="127.26" fx="129.9" fy="127.26" r="101.26" xlink:href="#radial-gradient-2"/><radialGradient id="radial-gradient-8" cx="129.9" cy="127.26" fx="129.9" fy="127.26" r="105.74" xlink:href="#radial-gradient-2"/><radialGradient id="radial-gradient-9" cx="129.9" fx="129.9" r="81.56" xlink:href="#radial-gradient-2"/><radialGradient id="radial-gradient-10" cx="129.9" cy="127.26" fx="129.9" fy="127.26" r="108.09" xlink:href="#radial-gradient-2"/><radialGradient id="radial-gradient-11" cx="129.9" cy="127.26" fx="129.9" fy="127.26" r="95.53" xlink:href="#radial-gradient-2"/><radialGradient id="radial-gradient-12" cx="129.9" fx="129.9" r="97.41" xlink:href="#radial-gradient-2"/><radialGradient id="radial-gradient-13" r="107.56" xlink:href="#radial-gradient-2"/><radialGradient id="radial-gradient-14" cx="129.9" cy="127.26" fx="129.9" fy="127.26" r="78.8" xlink:href="#radial-gradient-2"/><radialGradient id="radial-gradient-15" cx="129.9" fx="129.9" r="106.62" xlink:href="#radial-gradient-2"/><radialGradient id="radial-gradient-16" cx="129.9" cy="127.26" fx="129.9" fy="127.26" r="99.7" xlink:href="#radial-gradient-2"/><radialGradient id="radial-gradient-17" cx="129.9" cy="127.26" fx="129.9" fy="127.26" r="92.82" xlink:href="#radial-gradient-2"/><radialGradient id="radial-gradient-18" cx="129.9" cy="127.26" fx="129.9" fy="127.26" r="108.56" xlink:href="#radial-gradient-2"/><radialGradient id="radial-gradient-19" r="85.04" xlink:href="#radial-gradient-2"/><radialGradient id="radial-gradient-20" cx="129.9" cy="127.26" fx="129.9" fy="127.26" r="103.11" xlink:href="#radial-gradient-2"/><radialGradient id="radial-gradient-21" cx="129.9" cy="127.26" fx="129.9" fy="127.26" r="87.52" xlink:href="#radial-gradient-2"/></defs><rect class="cls-21" x="-.24" width="256" height="256" rx="25" ry="25"/><text class="cls-22" transform="translate(103.19 162.32)"><tspan x="0" y="0">V</tspan></text><g><path class="cls-20" d="M99.15,231.59l-.14-.25L25.57,96.5,160.66,22.92l.14,.25,73.44,134.84L99.15,231.59ZM26.34,96.73L99.38,230.82l134.09-73.03L160.43,23.7,26.34,96.73Z"/><path class="cls-15" d="M164.55,230.37L26.8,161.91l.13-.26L95.25,24.15,233.01,92.61l-.13,.26-68.33,137.5ZM27.56,161.65l136.73,67.95L232.25,92.87,95.51,24.92,27.56,161.65Z"/><path class="cls-16" d="M65.32,214.78l-.04-.28L42.38,62.67l152.11-22.94,.04,.28,22.89,151.83-152.11,22.94ZM43.03,63.15l22.77,150.98,150.98-22.77-22.77-150.98L43.03,63.15Z"/><path class="cls-14" d="M127.2,236l-.2-.21L21.16,124.55,132.61,18.52l.2,.21,105.84,111.24-111.45,106.04ZM21.97,124.57l105.25,110.62,110.62-105.25L132.59,19.33,21.97,124.57Z"/><path class="cls-13" d="M190.06,217.89l-150.78-30.47L69.75,36.63l150.78,30.47-30.47,150.78Zm-150.11-30.92l149.66,30.24,30.24-149.66L70.2,37.31l-30.24,149.66Z"/><path class="cls-19" d="M90.17,228.52l-.11-.26L28.65,87.52,169.64,26l.11,.26,61.41,140.73-140.99,61.53ZM29.4,87.82l61.07,139.94,139.94-61.07L169.34,26.75,29.4,87.82Z"/><path class="cls-18" d="M155.44,232.99l-.24-.15L24.17,152.79,104.37,21.52l.24,.15L235.64,101.73l-80.21,131.27ZM24.96,152.6l130.29,79.61L234.85,101.92,104.56,22.31,24.96,152.6Z"/><path class="cls-17" d="M57.93,208.82L48.34,55.29l153.53-9.59,9.59,153.53-153.53,9.59ZM48.95,55.82l9.52,152.39,152.39-9.52-9.52-152.39L48.95,55.82Z"/><path class="cls-3" d="M117.73,235.35l-.18-.22L21.81,115.09l.22-.18L142.08,19.17l.18,.22,95.74,120.04-.22,.18-120.04,95.74ZM22.62,115.18l95.21,119.37,119.37-95.21L141.99,19.97,22.62,115.18Z"/><path class="cls-7" d="M181.93,222.78l-.28-.08L34.38,179.29l.08-.27L77.88,31.73l.28,.08,147.28,43.42-.08,.27-43.42,147.28ZM35.09,178.9l146.45,43.17,43.17-146.46L78.26,32.44,35.09,178.9Z"/><path class="cls-10" d="M81.5,224.67l-.09-.27L32.49,78.85l.27-.09L178.31,29.85l.09,.27,48.91,145.55-.27,.09-145.55,48.91ZM33.22,79.21l48.64,144.73,144.73-48.64L177.95,30.57,33.22,79.21Z"/><path class="cls-12" d="M146.12,234.82L22.34,143.48,113.69,19.7l123.78,91.34-91.34,123.78ZM23.15,143.36l122.86,90.66,90.66-122.86L113.81,20.5,23.15,143.36Z"/><path class="cls-11" d="M204.88,206.06l-153.78-3.83v-.29l3.83-153.5,153.78,3.83v.29l-3.83,153.5Zm-153.2-4.38l152.64,3.8,3.8-152.64-152.64-3.8-3.8,152.64Z"/><path class="cls-9" d="M108.36,233.88L23.28,105.71,151.45,20.64l85.07,128.17L108.36,233.88ZM24.08,105.87l84.44,127.21,127.21-84.44L151.29,21.43,24.08,105.87Z"/><path class="cls-8" d="M173.41,226.95l-.27-.1L30.21,170.76,86.4,27.56l.27,.1,142.93,56.09-56.19,143.2ZM30.95,170.44l142.13,55.77,55.77-142.13L86.72,28.3,30.95,170.44Z"/><path class="cls-6" d="M73.19,220.08l-.07-.28L37.08,70.54,186.62,34.44l.07,.28,36.04,149.26-149.53,36.11ZM37.77,70.97l35.84,148.42,148.42-35.84L186.2,35.13,37.77,70.97Z"/><path class="cls-5" d="M136.69,235.82l-.21-.19L21.34,134.04l.19-.21L123.12,18.69l.21,.19,115.13,101.59-.19,.21-101.59,115.13ZM22.15,133.99l114.49,101.02,101.02-114.49L123.17,19.5,22.15,133.99Z"/><path class="cls-4" d="M197.73,212.3l-152.87-17.21,.03-.28L62.08,42.22l152.87,17.21-.03,.28-17.18,152.58Zm-152.23-17.72l151.73,17.09,17.09-151.73L62.58,42.85l-17.09,151.73Z"/><path class="cls-20" d="M99.15,231.59l-.14-.25L25.57,96.5,160.66,22.92l.14,.25,73.44,134.84L99.15,231.59ZM26.34,96.73L99.38,230.82l134.09-73.03L160.43,23.7,26.34,96.73Z"/><path class="cls-1" d="M164.55,230.37L26.8,161.91l.13-.26L95.25,24.15,233.01,92.61l-.13,.26-68.33,137.5ZM27.56,161.65l136.73,67.95L232.25,92.87,95.51,24.92,27.56,161.65Z"/><path class="cls-2" d="M65.32,214.78l-.04-.28L42.38,62.67l152.11-22.94,.04,.28,22.89,151.83-152.11,22.94ZM43.03,63.15l22.77,150.98,150.98-22.77-22.77-150.98L43.03,63.15Z"/></g></svg>