<svg width="25" height="25" viewBox="0 0 25 25" fill="none" xmlns="http://www.w3.org/2000/svg">
<path d="M23.9463 14.7643C24.4128 14.7643 24.8475 14.386 24.911 13.9235C24.911 13.9235 25 13.2735 25 12.5004C25 11.7274 24.911 11.0773 24.911 11.0773C24.8468 10.6146 24.4128 10.2363 23.9463 10.2363H21.5342C21.067 10.2363 20.5822 9.9386 20.4569 9.57486C20.3315 9.21111 20.1585 8.04414 20.4887 7.71415L22.1935 6.00916C22.5235 5.67896 22.5492 5.11541 22.2502 4.75652L20.2444 2.75002C19.8855 2.45084 19.3222 2.47616 18.9916 2.80657L17.2868 4.51156C16.9568 4.84197 16.4064 4.97489 16.0646 4.80737C15.7228 4.63984 14.7643 3.93324 14.7643 3.46633V1.0541C14.7643 0.58718 14.3858 0.152966 13.9235 0.089459C13.9235 0.089459 13.2735 0 12.5004 0C11.7274 0 11.0773 0.089459 11.0773 0.089459C10.6146 0.152966 10.2359 0.58718 10.2359 1.0541V3.46633C10.2359 3.93324 9.93843 4.41809 9.57449 4.54363C9.21054 4.66917 8.04379 4.84197 7.7136 4.51177L6.00863 2.80678C5.67844 2.47658 5.1149 2.45105 4.75623 2.75002L2.74997 4.75631C2.4508 5.1152 2.47612 5.67854 2.80652 6.00895L4.51127 7.71394C4.84147 8.04414 4.97481 8.59418 4.80708 8.93598C4.63934 9.27779 3.93297 10.2363 3.46606 10.2363H1.05429C0.587381 10.2363 0.153175 10.6148 0.0894575 11.0773C0.0894575 11.0773 0 11.7274 0 12.5002C0 13.2735 0.0894575 13.9231 0.0894575 13.9231C0.152964 14.386 0.58717 14.7643 1.05429 14.7643H3.46648C3.93339 14.7643 4.41823 15.0616 4.54356 15.4258C4.66909 15.7897 4.84189 16.9563 4.51149 17.2863L2.80673 18.9913C2.47654 19.3215 2.45101 19.885 2.75019 20.2441L4.75623 22.2504C5.11511 22.5494 5.67823 22.5245 6.00863 22.1936L7.7136 20.4889C8.04379 20.1589 8.59383 20.0257 8.93584 20.1933C9.27784 20.3608 10.2359 21.0674 10.2359 21.5341V23.9463C10.2359 24.413 10.6144 24.8472 11.0773 24.9105C11.0773 24.9105 11.7272 25 12.5004 25C13.2737 25 13.9235 24.9105 13.9235 24.9105C14.3862 24.847 14.7643 24.413 14.7643 23.9463V21.5341C14.7643 21.0672 15.062 20.5821 15.4259 20.4568C15.7901 20.3313 16.9568 20.1587 17.2868 20.4886L18.9916 22.1936C19.3218 22.5234 19.8853 22.5494 20.2444 22.2502L22.2502 20.2445C22.5492 19.8856 22.5243 19.3225 22.1935 18.9917L20.4887 17.2869C20.1585 16.9569 20.0252 16.4067 20.1931 16.0646C20.3607 15.7228 21.0672 14.7643 21.5339 14.7643H23.9463ZM12.5002 17.0759C9.97325 17.0759 7.9248 15.0278 7.9248 12.5002C7.9248 9.97341 9.97325 7.92472 12.5002 7.92472C15.0272 7.92472 17.0758 9.9732 17.0758 12.5002C17.0758 15.0272 15.0272 17.0759 12.5002 17.0759Z" fill="#010101"/>
</svg>
