<svg width="45" height="45" viewBox="0 0 45 45" fill="none" xmlns="http://www.w3.org/2000/svg">
<path d="M22.5 0C19.5453 0 16.6194 0.596429 13.8896 1.75523C11.1598 2.91404 8.67942 4.61252 6.5901 6.75371C2.37053 11.078 0 16.9431 0 23.0586C0 33.2505 6.4575 41.8975 15.39 44.9643C16.515 45.1488 16.875 44.4339 16.875 43.8114C16.875 43.281 16.875 41.8283 16.875 39.9144C10.6425 41.298 9.315 36.8246 9.315 36.8246C8.28 34.1498 6.8175 33.435 6.8175 33.435C4.77 32.0053 6.975 32.0515 6.975 32.0515C9.225 32.2129 10.4175 34.4265 10.4175 34.4265C12.375 37.9314 15.6825 36.8938 16.965 36.3404C17.1675 34.8416 17.7525 33.827 18.3825 33.2505C13.3875 32.674 8.145 30.691 8.145 21.9057C8.145 19.3462 9 17.294 10.4625 15.6568C10.2375 15.0803 9.45 12.6822 10.6875 9.56932C10.6875 9.56932 12.5775 8.94674 16.875 11.9213C18.6525 11.414 20.5875 11.1604 22.5 11.1604C24.4125 11.1604 26.3475 11.414 28.125 11.9213C32.4225 8.94674 34.3125 9.56932 34.3125 9.56932C35.55 12.6822 34.7625 15.0803 34.5375 15.6568C36 17.294 36.855 19.3462 36.855 21.9057C36.855 30.7141 31.59 32.651 26.5725 33.2275C27.3825 33.9423 28.125 35.3488 28.125 37.4933V43.8114C28.125 44.4339 28.485 45.1718 29.6325 44.9643C38.565 41.8744 45 33.2505 45 23.0586C45 20.0305 44.418 17.0321 43.2873 14.2345C42.1566 11.4369 40.4992 8.8949 38.4099 6.75371C36.3206 4.61252 33.8402 2.91404 31.1104 1.75523C28.3806 0.596429 25.4547 0 22.5 0Z" fill="black"/>
</svg>
