<svg width="191" height="40" viewBox="0 0 191 40" fill="none" xmlns="http://www.w3.org/2000/svg">
<path d="M14.4056 6.99403C14.1247 6.95388 13.884 6.95387 13.6031 6.95387C11.6368 6.95387 9.71074 7.75694 7.98528 9.28277C7.18274 10.0055 6.42032 10.8889 5.73816 11.8526C5.61778 8.11832 5.41715 4.14314 5.01588 0.0876465H0C1.08343 11.4912 0.963049 21.4492 0.762413 30.2027V30.2428H5.77829C5.9388 21.4894 8.10566 15.8679 11.3559 12.9769C12.2387 12.214 13.0814 11.8526 13.8438 11.9329C17.8164 12.3746 17.1744 24.7418 16.8935 30.2428H21.9094C22.11 26.1873 22.3508 21.2485 21.789 16.9922C20.9864 10.7684 18.4584 7.43572 14.4056 6.99403Z" fill="url(#paint0_linear_242_64)"/>
<path d="M65.6879 7.75694C64.4841 7.1948 63.2001 6.91372 61.916 6.91372C60.5918 6.91372 59.2676 7.1948 57.9434 7.7971C54.332 9.44339 51.3225 13.2178 49.918 17.9157C47.7512 25.1434 47.8715 33.8165 47.9117 39.5584C47.9117 39.719 47.9117 39.8395 47.9117 40.0001H52.9275C52.9275 39.8395 52.9275 39.6789 52.9275 39.5183C52.8874 34.0976 52.767 25.8661 54.7333 19.3613C55.6963 16.0687 57.7428 13.4186 60.03 12.3746C61.274 11.8124 62.4778 11.8124 63.5612 12.2943C64.7249 12.8564 65.3268 14.0209 65.5676 14.9444C66.2096 17.0324 65.8886 19.562 64.7249 21.3689C62.9192 24.3001 60.4313 25.3441 55.8568 25.2237V30.2027C60.6721 30.2428 65.9287 29.1185 69.0185 23.9789C70.8643 20.9273 71.4261 16.9119 70.3828 13.4587C69.6204 10.8488 67.9351 8.80093 65.6879 7.75694Z" fill="url(#paint1_linear_242_64)"/>
<path d="M35.6729 6.79326C29.2125 6.79326 23.996 12.1738 23.996 18.7991C23.996 25.4244 29.2526 30.805 35.6729 30.805C42.1334 30.805 47.3499 25.4244 47.3499 18.7991C47.3499 12.1738 42.0933 6.79326 35.6729 6.79326ZM35.6729 25.7858C31.9812 25.7858 29.0118 22.6538 29.0118 18.7991C29.0118 14.9444 31.9812 11.8124 35.6729 11.8124C39.3646 11.8124 42.334 14.9444 42.334 18.7991C42.334 22.6538 39.3245 25.7858 35.6729 25.7858Z" fill="url(#paint2_linear_242_64)"/>
<path d="M84.2668 6.79326C82.4209 6.79326 80.7356 7.47587 79.2509 8.84109C78.6891 9.36308 78.1674 9.96538 77.6859 10.6078C77.5655 9.56384 77.4452 8.4797 77.3248 7.35541H72.2688C73.4726 16.3096 73.3522 23.6978 73.2719 28.2352C73.2719 28.9178 73.2318 29.5201 73.2318 30.0421C73.2318 30.0822 73.2318 30.1224 73.2318 30.2027H78.2477C78.2878 26.8298 78.4082 24.1395 79.1706 20.0439C79.933 15.9884 82.1802 11.5715 84.4674 11.8124C86.2731 11.973 86.875 14.1413 87.0756 16.149H92.1317C91.8508 10.126 88.44 6.79326 84.2668 6.79326Z" fill="url(#paint3_linear_242_64)"/>
<path d="M102.8 30.288C104.6 30.288 105.68 29.352 105.68 27.696C105.68 26.076 104.636 25.068 102.8 25.068C101.072 25.068 99.956 26.04 99.956 27.696C99.956 29.316 101 30.288 102.8 30.288Z" fill="black"/>
<path d="M129.107 14.8477C129.436 15.2578 129.688 15.7383 129.863 16.2891C130.051 16.8281 130.145 17.4141 130.145 18.0469C130.145 18.9609 129.975 19.7988 129.635 20.5605C129.307 21.3105 128.838 21.9551 128.229 22.4941C127.619 23.0332 126.887 23.4551 126.031 23.7598C125.188 24.0527 124.256 24.1992 123.236 24.1992C122.498 24.1992 121.807 24.123 121.162 23.9707C120.518 23.8066 120.008 23.6074 119.633 23.373C119.41 23.7012 119.223 24.0117 119.07 24.3047C118.918 24.5977 118.842 24.9258 118.842 25.2891C118.842 25.7344 119.053 26.1035 119.475 26.3965C119.908 26.6895 120.477 26.8477 121.18 26.8711L125.82 27.0469C126.699 27.0703 127.508 27.1816 128.246 27.3809C128.996 27.5801 129.635 27.8672 130.162 28.2422C130.701 28.6172 131.117 29.0801 131.41 29.6309C131.715 30.1816 131.867 30.8203 131.867 31.5469C131.867 32.332 131.697 33.0762 131.357 33.7793C131.018 34.4824 130.49 35.0977 129.775 35.625C129.072 36.1641 128.176 36.5918 127.086 36.9082C125.996 37.2246 124.701 37.3828 123.201 37.3828C121.771 37.3828 120.553 37.2656 119.545 37.0312C118.549 36.8086 117.729 36.4922 117.084 36.082C116.439 35.6836 115.971 35.2031 115.678 34.6406C115.385 34.0898 115.238 33.4805 115.238 32.8125C115.238 31.957 115.438 31.207 115.836 30.5625C116.234 29.918 116.85 29.2969 117.682 28.6992C117.377 28.5586 117.113 28.3828 116.891 28.1719C116.668 27.9609 116.486 27.7324 116.346 27.4863C116.205 27.2285 116.1 26.959 116.029 26.6777C115.959 26.3965 115.924 26.1211 115.924 25.8516C115.924 25.0898 116.1 24.3926 116.451 23.7598C116.814 23.127 117.242 22.5293 117.734 21.9668C117.512 21.6973 117.312 21.4336 117.137 21.1758C116.973 20.918 116.826 20.6426 116.697 20.3496C116.58 20.0449 116.486 19.7227 116.416 19.3828C116.357 19.0312 116.328 18.6328 116.328 18.1875C116.328 17.2734 116.492 16.4414 116.82 15.6914C117.16 14.9297 117.629 14.2793 118.227 13.7402C118.836 13.2012 119.562 12.7852 120.406 12.4922C121.262 12.1875 122.205 12.0352 123.236 12.0352C123.67 12.0352 124.086 12.0645 124.484 12.123C124.883 12.1816 125.234 12.2578 125.539 12.3516H131.938V14.8477H129.107ZM118.49 32.5488C118.49 33.3809 118.924 33.9844 119.791 34.3594C120.658 34.7461 121.865 34.9395 123.412 34.9395C124.385 34.9395 125.199 34.8516 125.855 34.6758C126.523 34.5 127.057 34.2656 127.455 33.9727C127.865 33.6914 128.158 33.3633 128.334 32.9883C128.51 32.625 128.598 32.25 128.598 31.8633C128.598 31.1484 128.305 30.6211 127.719 30.2812C127.133 29.9414 126.236 29.7422 125.029 29.6836L120.424 29.5254C120.037 29.7832 119.715 30.0352 119.457 30.2812C119.211 30.5273 119.018 30.7734 118.877 31.0195C118.736 31.2773 118.637 31.5293 118.578 31.7754C118.52 32.0332 118.49 32.291 118.49 32.5488ZM119.422 18.1172C119.422 18.6797 119.516 19.1953 119.703 19.6641C119.891 20.1328 120.154 20.5312 120.494 20.8594C120.834 21.1875 121.232 21.4453 121.689 21.6328C122.158 21.8086 122.674 21.8965 123.236 21.8965C123.846 21.8965 124.385 21.7969 124.854 21.5977C125.334 21.3867 125.732 21.1055 126.049 20.7539C126.377 20.4023 126.623 19.998 126.787 19.541C126.963 19.084 127.051 18.6094 127.051 18.1172C127.051 17.5547 126.957 17.0391 126.77 16.5703C126.582 16.1016 126.318 15.7031 125.979 15.375C125.639 15.0469 125.234 14.7949 124.766 14.6191C124.309 14.4316 123.799 14.3379 123.236 14.3379C122.627 14.3379 122.082 14.4434 121.602 14.6543C121.133 14.8652 120.734 15.1465 120.406 15.498C120.09 15.8379 119.844 16.2363 119.668 16.6934C119.504 17.1504 119.422 17.625 119.422 18.1172Z" fill="black"/>
<path d="M147.529 30L147.459 27.627C146.498 28.5762 145.52 29.2617 144.523 29.6836C143.539 30.1055 142.502 30.3164 141.412 30.3164C140.404 30.3164 139.543 30.1875 138.828 29.9297C138.113 29.6719 137.521 29.3203 137.053 28.875C136.596 28.418 136.256 27.8848 136.033 27.2754C135.822 26.666 135.717 26.0039 135.717 25.2891C135.717 23.5195 136.373 22.1367 137.686 21.1406C139.01 20.1328 140.961 19.6289 143.539 19.6289H147.195V18.082C147.195 17.0391 146.861 16.207 146.193 15.5859C145.525 14.9531 144.506 14.6367 143.135 14.6367C142.139 14.6367 141.154 14.748 140.182 14.9707C139.221 15.1934 138.225 15.5098 137.193 15.9199V13.1602C137.58 13.0195 138.008 12.8848 138.477 12.7559C138.957 12.6152 139.461 12.4922 139.988 12.3867C140.516 12.2812 141.066 12.1992 141.641 12.1406C142.215 12.0703 142.795 12.0352 143.381 12.0352C144.447 12.0352 145.408 12.1523 146.264 12.3867C147.119 12.6211 147.84 12.9785 148.426 13.459C149.023 13.9395 149.48 14.543 149.797 15.2695C150.113 15.9961 150.271 16.8516 150.271 17.8359V30H147.529ZM147.195 21.9668H143.311C142.549 21.9668 141.893 22.043 141.342 22.1953C140.791 22.3477 140.34 22.5645 139.988 22.8457C139.637 23.127 139.373 23.4668 139.197 23.8652C139.033 24.252 138.951 24.6914 138.951 25.1836C138.951 25.5234 139.004 25.8516 139.109 26.168C139.215 26.4727 139.385 26.748 139.619 26.9941C139.854 27.2285 140.158 27.416 140.533 27.5566C140.908 27.6973 141.365 27.7676 141.904 27.7676C142.607 27.7676 143.41 27.5566 144.312 27.1348C145.227 26.7012 146.188 26.0215 147.195 25.0957V21.9668Z" fill="black"/>
<path d="M170.205 29.7539C169.514 29.9297 168.799 30.0527 168.061 30.123C167.322 30.2051 166.572 30.2461 165.811 30.2461C163.596 30.2461 161.943 29.748 160.854 28.752C159.764 27.7441 159.219 26.2031 159.219 24.1289V14.918H154.279V12.3516H159.219V7.5L162.277 6.70898V12.3516H170.205V14.918H162.277V23.8828C162.277 25.1484 162.611 26.0977 163.279 26.7305C163.959 27.3516 164.955 27.6621 166.268 27.6621C166.83 27.6621 167.445 27.6211 168.113 27.5391C168.781 27.4453 169.479 27.3047 170.205 27.1172V29.7539Z" fill="black"/>
<path d="M190.684 20.2441C190.684 20.6777 190.678 21.041 190.666 21.334C190.654 21.627 190.637 21.9023 190.613 22.1602H178.221C178.221 23.9648 178.725 25.3535 179.732 26.3262C180.74 27.2871 182.193 27.7676 184.092 27.7676C184.607 27.7676 185.123 27.75 185.639 27.7148C186.154 27.668 186.652 27.6094 187.133 27.5391C187.613 27.4688 188.07 27.3926 188.504 27.3105C188.949 27.2168 189.359 27.1172 189.734 27.0117V29.5254C188.902 29.7598 187.959 29.9473 186.904 30.0879C185.861 30.2402 184.777 30.3164 183.652 30.3164C182.141 30.3164 180.84 30.1113 179.75 29.7012C178.66 29.291 177.764 28.6992 177.061 27.9258C176.369 27.1406 175.854 26.1855 175.514 25.0605C175.186 23.9238 175.021 22.6406 175.021 21.2109C175.021 19.9688 175.197 18.7969 175.549 17.6953C175.912 16.582 176.434 15.6094 177.113 14.7773C177.805 13.9336 178.648 13.2656 179.645 12.7734C180.641 12.2812 181.771 12.0352 183.037 12.0352C184.268 12.0352 185.357 12.2285 186.307 12.6152C187.256 13.002 188.053 13.5527 188.697 14.2676C189.354 14.9707 189.846 15.832 190.174 16.8516C190.514 17.8594 190.684 18.9902 190.684 20.2441ZM187.502 19.8047C187.537 19.0195 187.461 18.3047 187.273 17.6602C187.086 17.0039 186.793 16.4414 186.395 15.9727C186.008 15.5039 185.521 15.1406 184.936 14.8828C184.35 14.6133 183.67 14.4785 182.896 14.4785C182.229 14.4785 181.619 14.6074 181.068 14.8652C180.518 15.123 180.043 15.4863 179.645 15.9551C179.246 16.4238 178.924 16.9863 178.678 17.6426C178.432 18.2988 178.279 19.0195 178.221 19.8047H187.502Z" fill="black"/>
<defs>
<linearGradient id="paint0_linear_242_64" x1="95.5723" y1="41.2818" x2="95.5723" y2="7.86176" gradientUnits="userSpaceOnUse">
<stop stop-color="#0000B4"/>
<stop offset="0.00909091" stop-color="#0000B4"/>
<stop offset="1" stop-color="#000050"/>
</linearGradient>
<linearGradient id="paint1_linear_242_64" x1="95.5037" y1="29.3979" x2="95.5037" y2="-1.06134" gradientUnits="userSpaceOnUse">
<stop stop-color="#0000B4"/>
<stop offset="0.00909091" stop-color="#0000B4"/>
<stop offset="1" stop-color="#000050"/>
</linearGradient>
<linearGradient id="paint2_linear_242_64" x1="95.1963" y1="40.6753" x2="95.1963" y2="-1.29534" gradientUnits="userSpaceOnUse">
<stop stop-color="#0000B4"/>
<stop offset="0.00909091" stop-color="#0000B4"/>
<stop offset="1" stop-color="#000050"/>
</linearGradient>
<linearGradient id="paint3_linear_242_64" x1="95.3811" y1="41.7196" x2="95.3811" y2="-1.33092" gradientUnits="userSpaceOnUse">
<stop stop-color="#0000B4"/>
<stop offset="0.00909091" stop-color="#0000B4"/>
<stop offset="1" stop-color="#000050"/>
</linearGradient>
</defs>
</svg>
