<svg width="21" height="21" viewBox="0 0 21 21" fill="none" xmlns="http://www.w3.org/2000/svg">
<path d="M15.7504 10.5C15.7504 10.983 15.3585 11.375 14.8755 11.375C14.3926 11.375 14.0006 10.983 14.0006 10.5C14.0006 10.017 14.3926 9.625 14.8755 9.625C15.3585 9.625 15.7504 10.017 15.7504 10.5ZM6.12624 4.375C6.6092 4.375 7.00117 3.98388 7.00117 3.5C7.00117 2.53487 7.78598 1.75 8.75102 1.75C9.71606 1.75 10.5009 2.53487 10.5009 3.5C10.5009 3.98388 10.8928 4.375 11.3758 4.375C11.8588 4.375 12.2507 3.98388 12.2507 3.5C12.2507 1.56975 10.6811 0 8.75102 0C6.82093 0 5.25131 1.56975 5.25131 3.5C5.25131 3.98388 5.64328 4.375 6.12624 4.375ZM21 11.375V13.125C21 14.0927 20.3456 14.6816 19.6281 14.8348C19.0498 16.282 17.9902 17.5044 16.6254 18.2945V18.375C16.6254 19.8223 15.4477 21 14.0006 21C12.8597 21 11.8868 20.2685 11.5254 19.25H9.47546C9.11411 20.2685 8.1412 21 7.00029 21C5.55316 21 4.37551 19.8223 4.37551 18.375V18.3059C2.07008 16.9767 0.716565 14.476 0.890676 11.7863C0.945796 10.9305 1.1619 10.1176 1.5075 9.37475C0.617698 8.95387 0 8.04825 0 7C0 5.55275 1.17765 4.375 2.62478 4.375C3.10774 4.375 3.49971 4.76613 3.49971 5.25C3.49971 5.73387 3.10774 6.125 2.62478 6.125C2.14182 6.125 1.74985 6.517 1.74985 7C1.74985 7.42963 2.06133 7.7875 2.46992 7.861C3.80068 6.26588 5.84101 5.25 8.10707 5.25H12.7993C13.4406 3.95675 14.6384 3.052 16.2351 2.67225C16.7522 2.55062 17.2877 2.66963 17.7059 2.9995C18.1302 3.3355 18.3743 3.83775 18.3743 4.3785V7.62912C18.9063 8.23375 19.3315 8.925 19.6272 9.66525C20.3456 9.81837 20.9991 10.4073 20.9991 11.375H21ZM19.2501 11.375H18.9929C18.6062 11.375 18.265 11.1204 18.1547 10.7494C17.915 9.94438 17.4723 9.19537 16.8747 8.582C16.7146 8.41838 16.6254 8.19875 16.6254 7.97125V4.3785C15.7723 4.5815 14.6437 5.10475 14.2071 6.42163C14.0837 6.79175 13.7232 7.04637 13.3409 7.02012C13.2814 7.0175 8.10882 7.00088 8.10882 7.00088C5.21894 7.00088 2.81552 9.1525 2.63791 11.9C2.49792 14.0604 3.67119 16.058 5.62753 16.9881C5.93288 17.1334 6.12624 17.4414 6.12624 17.7783V18.3759C6.12624 18.8589 6.51908 19.2509 7.00117 19.2509C7.48325 19.2509 7.87609 18.8589 7.87609 18.3759C7.87609 17.8929 8.26806 17.5009 8.75102 17.5009H12.2507C12.7337 17.5009 13.1257 17.892 13.1257 18.3759C13.1257 18.8597 13.5185 19.2509 14.0006 19.2509C14.4827 19.2509 14.8755 18.8589 14.8755 18.3759V17.7686C14.8755 17.4317 15.0689 17.1246 15.3733 16.9794C16.7225 16.3354 17.7356 15.1585 18.1547 13.7524C18.265 13.3814 18.6062 13.1267 18.9929 13.1267H19.2501V11.3767V11.375Z" fill="url(#paint0_linear_2_43)"/>
<defs>
<linearGradient id="paint0_linear_2_43" x1="21" y1="11" x2="-9.44082e-08" y2="11" gradientUnits="userSpaceOnUse">
<stop stop-color="#0A6BB8"/>
<stop offset="1" stop-color="#593697"/>
</linearGradient>
</defs>
</svg>
