<svg width="14" height="16" viewBox="0 0 14 16" fill="none" xmlns="http://www.w3.org/2000/svg">
<path d="M12.5378 2.18133L11.0428 0.608667C10.8592 0.416644 10.6398 0.263893 10.3975 0.159374C10.1552 0.0548549 9.89479 0.000670954 9.63163 0L6.54545 0C5.79128 0.000969683 5.0605 0.266727 4.47627 0.752479C3.89204 1.23823 3.4901 1.91428 3.33818 2.66667H3.27273C2.40506 2.66773 1.57324 3.01925 0.959707 3.64415C0.346177 4.26904 0.00103932 5.11627 0 6V12.6667C0.00103932 13.5504 0.346177 14.3976 0.959707 15.0225C1.57324 15.6474 2.40506 15.9989 3.27273 16H7.2C8.06766 15.9989 8.89949 15.6474 9.51302 15.0225C10.1265 14.3976 10.4717 13.5504 10.4727 12.6667V12.6C11.2114 12.4453 11.8752 12.0359 12.3521 11.4408C12.829 10.8458 13.09 10.1015 13.0909 9.33333V3.57333C13.0919 3.05361 12.8934 2.55408 12.5378 2.18133ZM7.2 14.6667H3.27273C2.75194 14.6667 2.25248 14.456 1.88423 14.0809C1.51597 13.7058 1.30909 13.1971 1.30909 12.6667V6C1.30909 5.46957 1.51597 4.96086 1.88423 4.58579C2.25248 4.21071 2.75194 4 3.27273 4V9.33333C3.27377 10.2171 3.6189 11.0643 4.23243 11.6892C4.84596 12.3141 5.67779 12.6656 6.54545 12.6667H9.16363C9.16363 13.1971 8.95675 13.7058 8.5885 14.0809C8.22025 14.456 7.72079 14.6667 7.2 14.6667ZM9.81818 11.3333H6.54545C6.02466 11.3333 5.52521 11.1226 5.15695 10.7475C4.7887 10.3725 4.58182 9.86377 4.58182 9.33333V3.33333C4.58182 2.8029 4.7887 2.29419 5.15695 1.91912C5.52521 1.54405 6.02466 1.33333 6.54545 1.33333H9.16363V2.66667C9.16363 3.02029 9.30156 3.35943 9.54706 3.60948C9.79256 3.85952 10.1255 4 10.4727 4H11.7818V9.33333C11.7818 9.86377 11.5749 10.3725 11.2067 10.7475C10.8384 11.1226 10.339 11.3333 9.81818 11.3333Z" fill="#484848"/>
</svg>
