<svg width="11" height="11" viewBox="0 0 11 11" fill="none" xmlns="http://www.w3.org/2000/svg">
<path d="M5.5 0C4.41221 0 3.34884 0.322569 2.44437 0.926917C1.5399 1.53127 0.834947 2.39025 0.418665 3.39524C0.00238307 4.40024 -0.106535 5.5061 0.105683 6.573C0.317902 7.63989 0.841726 8.6199 1.61092 9.38909C2.3801 10.1583 3.36011 10.6821 4.42701 10.8943C5.4939 11.1065 6.59977 10.9976 7.60476 10.5813C8.60976 10.1651 9.46874 9.46011 10.0731 8.55564C10.6774 7.65117 11 6.5878 11 5.5C10.9984 4.04179 10.4185 2.64376 9.38735 1.61265C8.35624 0.581546 6.95821 0.00157716 5.5 0V0ZM5.5 10.0833C4.59351 10.0833 3.70736 9.81453 2.95364 9.3109C2.19991 8.80728 1.61246 8.09146 1.26555 7.25397C0.918653 6.41647 0.827888 5.49492 1.00474 4.60584C1.18159 3.71676 1.61811 2.90009 2.2591 2.25909C2.90009 1.6181 3.71676 1.18158 4.60584 1.00473C5.49492 0.827885 6.41647 0.918651 7.25397 1.26555C8.09146 1.61245 8.80728 2.19991 9.31091 2.95364C9.81453 3.70736 10.0833 4.5935 10.0833 5.5C10.082 6.71517 9.59869 7.88018 8.73944 8.73943C7.88018 9.59869 6.71517 10.082 5.5 10.0833Z" fill="#6B0000"/>
<path d="M5.50002 2.29175C5.37846 2.29175 5.26188 2.34004 5.17593 2.42599C5.08998 2.51195 5.04169 2.62852 5.04169 2.75008V6.41675C5.04169 6.53831 5.08998 6.65489 5.17593 6.74084C5.26188 6.82679 5.37846 6.87508 5.50002 6.87508C5.62158 6.87508 5.73816 6.82679 5.82411 6.74084C5.91007 6.65489 5.95835 6.53831 5.95835 6.41675V2.75008C5.95835 2.62852 5.91007 2.51195 5.82411 2.42599C5.73816 2.34004 5.62158 2.29175 5.50002 2.29175Z" fill="#6B0000"/>
<path d="M5.95835 8.25008C5.95835 7.99695 5.75315 7.79175 5.50002 7.79175C5.24689 7.79175 5.04169 7.99695 5.04169 8.25008C5.04169 8.50321 5.24689 8.70841 5.50002 8.70841C5.75315 8.70841 5.95835 8.50321 5.95835 8.25008Z" fill="#6B0000"/>
</svg>
