<svg width="64" height="15" viewBox="0 0 64 15" fill="none" xmlns="http://www.w3.org/2000/svg">
<path d="M8.49704 9.00286C8.3477 9.00286 8.20448 8.94269 8.09889 8.8356C7.99329 8.7285 7.93397 8.58325 7.93397 8.43179V2.32338C7.93366 2.2884 7.92152 2.2546 7.89959 2.22761C7.87766 2.20062 7.84726 2.18209 7.81347 2.17511C7.77968 2.16812 7.74455 2.17311 7.71396 2.18924C7.68336 2.20537 7.65915 2.23166 7.64537 2.26372L4.95863 8.70619C4.92271 8.79352 4.86201 8.86805 4.78423 8.92031C4.70645 8.97257 4.61512 9.00019 4.52182 8.99968C4.42873 8.99974 4.33768 8.97201 4.26001 8.91997C4.18234 8.86792 4.12148 8.79386 4.08501 8.70699L1.37003 2.20725C1.35626 2.17519 1.33205 2.1489 1.30145 2.13277C1.27085 2.11664 1.23573 2.11165 1.20194 2.11864C1.16815 2.12562 1.13775 2.14415 1.11582 2.17114C1.09388 2.19813 1.08175 2.23193 1.08144 2.26691V8.45167C1.08144 8.59701 1.02451 8.7364 0.923183 8.83918C0.821851 8.94195 0.684416 8.99968 0.541112 8.99968C0.470089 8.99979 0.399743 8.98569 0.334097 8.95819C0.268451 8.9307 0.208793 8.89035 0.158536 8.83946C0.108278 8.78856 0.0684077 8.72811 0.0412046 8.66157C0.0140016 8.59503 -7.48047e-08 8.5237 0 8.45167V1.04125C-4.38472e-08 0.918451 0.0238601 0.79686 0.0702169 0.683423C0.116574 0.569985 0.184518 0.466925 0.270167 0.380133C0.355815 0.293341 0.457489 0.224519 0.569376 0.1776C0.681263 0.130681 0.80117 0.106585 0.922244 0.10669C1.10372 0.106533 1.28119 0.16082 1.43231 0.262719C1.58344 0.364619 1.70147 0.509578 1.77156 0.679354L4.23244 6.61915C4.25558 6.67531 4.29459 6.72328 4.34454 6.75702C4.3945 6.79076 4.45318 6.80877 4.51319 6.80877C4.57321 6.80877 4.63189 6.79076 4.68185 6.75702C4.7318 6.72328 4.7708 6.67531 4.79394 6.61915L7.24464 0.693671C7.31684 0.519762 7.43801 0.371315 7.59298 0.266906C7.74796 0.162498 7.92985 0.106767 8.11591 0.10669C8.36549 0.10669 8.60486 0.207246 8.78134 0.386238C8.95782 0.56523 9.05697 0.807996 9.05697 1.06113V8.42861C9.05697 8.50367 9.04238 8.578 9.01404 8.64733C8.98569 8.71667 8.94415 8.77966 8.89178 8.8327C8.83941 8.88574 8.77724 8.92779 8.70884 8.95644C8.64043 8.98509 8.56713 8.99979 8.49312 8.99968L8.49704 9.00286Z" fill="white"/>
<path d="M14.4093 9.00268H10.6944C10.5615 9.00268 10.434 8.94913 10.3401 8.85382C10.2461 8.75851 10.1933 8.62924 10.1933 8.49444V0.613953C10.1933 0.47916 10.2461 0.349888 10.3401 0.254575C10.434 0.159261 10.5615 0.105713 10.6944 0.105713H14.2116C14.3446 0.105713 14.472 0.159261 14.566 0.254575C14.66 0.349888 14.7128 0.47916 14.7128 0.613953V0.619521C14.7128 0.754315 14.66 0.883587 14.566 0.9789C14.472 1.07421 14.3446 1.12776 14.2116 1.12776H11.8276C11.6946 1.12776 11.5671 1.18128 11.473 1.27657C11.3789 1.37186 11.3259 1.50113 11.3257 1.636V3.46534C11.3259 3.60021 11.3789 3.72948 11.473 3.82477C11.5671 3.92006 11.6946 3.97358 11.8276 3.97358H13.9623C14.0952 3.97358 14.2226 4.02713 14.3166 4.12244C14.4106 4.21776 14.4634 4.34703 14.4634 4.48182C14.4634 4.61661 14.4106 4.74589 14.3166 4.8412C14.2226 4.93651 14.0952 4.99006 13.9623 4.99006H11.8276C11.6946 4.99006 11.5671 5.04358 11.473 5.13887C11.3789 5.23416 11.3259 5.36343 11.3257 5.4983V7.47796C11.3259 7.61283 11.3789 7.7421 11.473 7.83739C11.5671 7.93268 11.6946 7.9862 11.8276 7.9862H14.4093C14.5422 7.9862 14.6698 8.03972 14.7639 8.13502C14.858 8.23031 14.911 8.35958 14.9112 8.49444C14.911 8.62931 14.858 8.75858 14.7639 8.85387C14.6698 8.94916 14.5422 9.00268 14.4093 9.00268Z" fill="white"/>
<path d="M21.7331 1.12874H20.2062C20.0725 1.12874 19.9442 1.18262 19.8497 1.27853C19.7551 1.37444 19.702 1.50452 19.702 1.64016V8.49224C19.702 8.55936 19.6889 8.62583 19.6636 8.68783C19.6382 8.74983 19.6011 8.80616 19.5542 8.85358C19.5074 8.90101 19.4518 8.93861 19.3906 8.96422C19.3295 8.98984 19.2639 9.00296 19.1977 9.00286H19.0668C19.0006 9.00296 18.935 8.98984 18.8738 8.96422C18.8127 8.93861 18.7571 8.90101 18.7102 8.85358C18.6634 8.80616 18.6262 8.74983 18.6009 8.68783C18.5755 8.62583 18.5625 8.55936 18.5625 8.49224V1.64016C18.5625 1.50466 18.5095 1.3747 18.4151 1.27881C18.3207 1.18292 18.1926 1.12895 18.059 1.12874H16.5478C16.4141 1.12874 16.2858 1.07485 16.1913 0.978945C16.0967 0.883035 16.0436 0.752953 16.0436 0.617316C16.0436 0.550193 16.0566 0.483729 16.082 0.421725C16.1073 0.359721 16.1445 0.303393 16.1913 0.255967C16.2382 0.208541 16.2937 0.170947 16.3549 0.145332C16.4161 0.119718 16.4817 0.106586 16.5478 0.10669H21.7331C21.7993 0.106586 21.8648 0.119718 21.926 0.145332C21.9872 0.170947 22.0428 0.208541 22.0896 0.255967C22.1365 0.303393 22.1736 0.359721 22.199 0.421725C22.2243 0.483729 22.2374 0.550193 22.2374 0.617316C22.2374 0.752953 22.1842 0.883035 22.0897 0.978945C21.9951 1.07485 21.8668 1.12874 21.7331 1.12874Z" fill="white"/>
<path d="M47.959 9.0028H47.9512C47.8329 9.00299 47.7174 8.96643 47.6202 8.89803C47.5231 8.82963 47.4489 8.73268 47.4077 8.62023L46.7945 6.94996C46.7533 6.83751 46.6791 6.74056 46.5819 6.67216C46.4848 6.60376 46.3693 6.56719 46.251 6.56739H43.4113C43.2909 6.56693 43.1734 6.60451 43.075 6.67493C42.9766 6.74534 42.9023 6.84508 42.8624 6.9603L42.2907 8.60909C42.2509 8.72437 42.1766 8.82418 42.0782 8.89461C41.9798 8.96504 41.8622 9.00258 41.7417 9.00201C41.648 9.00196 41.5557 8.97885 41.4727 8.93468C41.3897 8.8905 41.3185 8.82657 41.2652 8.74837C41.2119 8.67016 41.1782 8.58002 41.1668 8.48567C41.1554 8.39132 41.1667 8.29557 41.1998 8.20664L44.023 0.681677C44.0866 0.512805 44.1992 0.36748 44.3459 0.264937C44.4927 0.162394 44.6667 0.107466 44.8449 0.107422C45.0231 0.107466 45.1971 0.162394 45.3439 0.264937C45.4906 0.36748 45.6032 0.512805 45.6668 0.681677L48.4899 8.20664C48.5229 8.29474 48.5345 8.38958 48.5237 8.48317C48.513 8.57677 48.4802 8.66636 48.4281 8.74441C48.3761 8.82247 48.3063 8.88668 48.2247 8.93165C48.143 8.97662 48.0519 9.00102 47.959 9.0028ZM46.1412 5.09039L45.1617 2.21753C45.1381 2.14734 45.0934 2.08641 45.0339 2.04327C44.9744 2.00012 44.9031 1.97693 44.83 1.97693C44.7569 1.97693 44.6856 2.00012 44.6261 2.04327C44.5666 2.08641 44.5219 2.14734 44.4983 2.21753L43.5188 5.09039C43.5005 5.14403 43.4952 5.2013 43.5032 5.25745C43.5112 5.3136 43.5323 5.367 43.5647 5.41321C43.5972 5.45942 43.64 5.49711 43.6897 5.52313C43.7394 5.54916 43.7946 5.56277 43.8505 5.56284H45.811C45.8669 5.5627 45.9219 5.54901 45.9715 5.52293C46.0211 5.49685 46.0638 5.45912 46.0962 5.4129C46.1285 5.36667 46.1494 5.31328 46.1572 5.25718C46.1651 5.20109 46.1596 5.1439 46.1412 5.09039Z" fill="white"/>
<path d="M55.3574 1.12874H53.8345C53.7007 1.12874 53.5725 1.18262 53.4779 1.27853C53.3833 1.37444 53.3302 1.50452 53.3302 1.64016V8.49224C53.3302 8.55936 53.3172 8.62583 53.2918 8.68783C53.2665 8.74983 53.2293 8.80616 53.1825 8.85358C53.1356 8.90101 53.08 8.93861 53.0189 8.96422C52.9577 8.98984 52.8921 9.00296 52.826 9.00286H52.6958C52.6296 9.00296 52.564 8.98984 52.5029 8.96422C52.4417 8.93861 52.3861 8.90101 52.3393 8.85358C52.2924 8.80616 52.2553 8.74983 52.2299 8.68783C52.2046 8.62583 52.1915 8.55936 52.1915 8.49224V1.64016C52.1916 1.57303 52.1787 1.50655 52.1534 1.4445C52.1282 1.38246 52.0911 1.32608 52.0443 1.27858C51.9976 1.23108 51.942 1.19339 51.8809 1.16768C51.8198 1.14197 51.7542 1.12874 51.688 1.12874H50.1761C50.0423 1.12874 49.9141 1.07485 49.8195 0.978945C49.7249 0.883035 49.6718 0.752953 49.6718 0.617316C49.6718 0.550193 49.6849 0.483729 49.7102 0.421725C49.7356 0.359721 49.7727 0.303393 49.8196 0.255967C49.8664 0.208541 49.922 0.170947 49.9832 0.145332C50.0443 0.119718 50.1099 0.106586 50.1761 0.10669H55.3574C55.4236 0.106586 55.4892 0.119718 55.5503 0.145332C55.6115 0.170947 55.6671 0.208541 55.7139 0.255967C55.7608 0.303393 55.7979 0.359721 55.8233 0.421725C55.8486 0.483729 55.8617 0.550193 55.8617 0.617316C55.8617 0.752953 55.8085 0.883035 55.714 0.978945C55.6194 1.07485 55.4912 1.12874 55.3574 1.12874Z" fill="white"/>
<path d="M63.133 9.00286C63.0586 9.00286 62.985 8.98801 62.9163 8.95915C62.8476 8.93029 62.7852 8.88799 62.7326 8.83467C62.68 8.78134 62.6383 8.71804 62.6099 8.64837C62.5814 8.5787 62.5668 8.50402 62.5668 8.42861V5.56529C62.5668 5.41299 62.5071 5.26692 62.4009 5.15923C62.2947 5.05154 62.1507 4.99103 62.0005 4.99103H58.6927C58.5425 4.99103 58.3985 5.05154 58.2923 5.15923C58.1861 5.26692 58.1265 5.41299 58.1265 5.56529V8.42861C58.1265 8.58091 58.0668 8.72697 57.9607 8.83467C57.8545 8.94236 57.7105 9.00286 57.5603 9.00286C57.4101 9.00286 57.2661 8.94236 57.1599 8.83467C57.0537 8.72697 56.9941 8.58091 56.9941 8.42861V0.680944C56.9941 0.528642 57.0537 0.382578 57.1599 0.274884C57.2661 0.167191 57.4101 0.106689 57.5603 0.106689C57.7105 0.106689 57.8545 0.167191 57.9607 0.274884C58.0668 0.382578 58.1265 0.528642 58.1265 0.680944V3.39792C58.1265 3.55029 58.1861 3.69644 58.2923 3.80426C58.3984 3.91208 58.5425 3.97276 58.6927 3.97297H62.0005C62.1508 3.97276 62.2948 3.91208 62.401 3.80426C62.5071 3.69644 62.5668 3.55029 62.5668 3.39792V0.680944C62.5668 0.605532 62.5814 0.530858 62.6099 0.461187C62.6383 0.391515 62.68 0.328209 62.7326 0.274884C62.7852 0.22156 62.8476 0.179261 62.9163 0.150402C62.985 0.121543 63.0586 0.106689 63.133 0.106689C63.2831 0.106689 63.4272 0.167191 63.5333 0.274884C63.6395 0.382578 63.6992 0.528642 63.6992 0.680944V8.42861C63.6992 8.58091 63.6395 8.72697 63.5333 8.83467C63.4272 8.94236 63.2831 9.00286 63.133 9.00286Z" fill="white"/>
<path d="M27.5756 2.58574C27.5396 2.48439 27.4735 2.39685 27.3864 2.33516C27.2994 2.27347 27.1956 2.24068 27.0894 2.24129C26.9832 2.2419 26.8798 2.27588 26.7934 2.33857C26.707 2.40125 26.6419 2.48955 26.6071 2.59131L24.5061 8.65518C24.466 8.77141 24.3912 8.87211 24.2922 8.94335C24.1931 9.0146 24.0747 9.05287 23.9533 9.05286C23.8581 9.05317 23.7643 9.02996 23.68 8.98525C23.5957 8.94054 23.5234 8.87568 23.4693 8.79627C23.4153 8.71685 23.3811 8.62528 23.3698 8.52947C23.3584 8.43365 23.3703 8.33649 23.4043 8.24636L26.2644 0.629139C26.3286 0.458722 26.4423 0.312074 26.5904 0.208555C26.7386 0.105035 26.9142 0.0495115 27.0941 0.0493164C27.2747 0.0492721 27.4511 0.105141 27.5997 0.209458C27.7482 0.313775 27.8618 0.461574 27.9253 0.633115L32.7491 13.6286C32.7823 13.7185 32.7935 13.8153 32.7818 13.9105C32.7701 14.0058 32.7358 14.0968 32.6818 14.1757C32.6278 14.2545 32.5558 14.319 32.472 14.3635C32.3881 14.408 32.2948 14.4312 32.2001 14.4311C32.08 14.4311 31.9629 14.3935 31.8646 14.3235C31.7664 14.2535 31.6918 14.1544 31.6512 14.0398C31.0285 12.2916 28.4923 5.17545 27.5756 2.58574Z" fill="url(#paint0_linear_13_534)"/>
<path d="M39.4503 9.00275C39.3281 9.00297 39.2089 8.96488 39.1089 8.89368C39.009 8.82249 38.9332 8.72167 38.8919 8.60507L36.7298 2.44337C36.6986 2.35472 36.6411 2.27804 36.5652 2.22383C36.4893 2.16961 36.3988 2.14051 36.3059 2.14051C36.2131 2.14051 36.1226 2.16961 36.0467 2.22383C35.9708 2.27804 35.9133 2.35472 35.8821 2.44337L33.8101 8.32908C33.7401 8.52557 33.6124 8.69553 33.4441 8.81601C33.2758 8.93649 33.0751 9.00167 32.8691 9.00275C32.6649 9.00287 32.4656 8.94002 32.2975 8.82254C32.1294 8.70506 32.0006 8.5385 31.928 8.34499L29.0985 0.812069C29.0646 0.721622 29.0527 0.624176 29.064 0.528071C29.0753 0.431966 29.1094 0.340065 29.1633 0.260239C29.2173 0.180414 29.2895 0.115044 29.3739 0.069721C29.4582 0.0243982 29.5521 0.00047454 29.6475 2.08895e-07C29.7669 0.000827037 29.8832 0.0382692 29.9812 0.107404C30.0791 0.176539 30.1542 0.27413 30.1965 0.387343L32.4707 6.51803C32.5029 6.60517 32.5609 6.68008 32.6367 6.73248C32.7125 6.78489 32.8024 6.81223 32.8942 6.81075C32.9859 6.80927 33.0749 6.77904 33.1491 6.72421C33.2232 6.66939 33.2788 6.59264 33.3082 6.50451L35.2515 0.752416C35.3257 0.532913 35.4657 0.342401 35.6518 0.207502C35.838 0.0726031 36.0611 5.70379e-05 36.2899 2.08895e-07C36.5151 -0.000139696 36.735 0.0699981 36.9196 0.200898C37.1042 0.331797 37.2447 0.517124 37.3219 0.731738L40.0055 8.19546C40.0381 8.28616 40.0487 8.38349 40.0364 8.47922C40.0241 8.57496 39.9892 8.66628 39.9348 8.74546C39.8803 8.82465 39.8078 8.88937 39.7235 8.93415C39.6392 8.97893 39.5455 9.00246 39.4503 9.00275Z" fill="url(#paint1_linear_13_534)"/>
<defs>
<linearGradient id="paint0_linear_13_534" x1="37.3627" y1="13.3614" x2="21.7869" y2="2.04564" gradientUnits="userSpaceOnUse">
<stop stop-color="#1D71B8"/>
<stop offset="1" stop-color="#662483"/>
</linearGradient>
<linearGradient id="paint1_linear_13_534" x1="40.5607" y1="8.95901" x2="24.9857" y2="-2.35672" gradientUnits="userSpaceOnUse">
<stop stop-color="#1D71B8"/>
<stop offset="1" stop-color="#662483"/>
</linearGradient>
</defs>
</svg>
