<svg width="21" height="21" viewBox="0 0 21 21" fill="none" xmlns="http://www.w3.org/2000/svg">
<path d="M8.64325 15.8567C8.88703 16.1007 9.17648 16.2942 9.49507 16.4262C9.81366 16.5582 10.1551 16.6262 10.5 16.6262C10.8449 16.6262 11.1863 16.5582 11.5049 16.4262C11.8235 16.2942 12.113 16.1007 12.3567 15.8567L15.1664 13.0471C15.317 12.8805 15.3978 12.6624 15.3921 12.4378C15.3863 12.2133 15.2944 11.9996 15.1354 11.8409C14.9764 11.6823 14.7625 11.5908 14.5379 11.5855C14.3134 11.5802 14.0954 11.6615 13.9291 11.8125L11.3689 14.3736L11.375 0.875C11.375 0.642936 11.2828 0.420376 11.1187 0.256282C10.9546 0.0921872 10.7321 0 10.5 0C10.2679 0 10.0454 0.0921872 9.88128 0.256282C9.71719 0.420376 9.625 0.642936 9.625 0.875L9.61713 14.357L7.07088 11.8125C6.90669 11.6484 6.68405 11.5563 6.45194 11.5564C6.21983 11.5565 5.99726 11.6488 5.83319 11.8129C5.66912 11.9771 5.57699 12.1998 5.57707 12.4319C5.57716 12.664 5.66944 12.8866 5.83362 13.0506L8.64325 15.8567Z" fill="url(#paint0_linear_3_397)"/>
<path d="M20.125 14C19.8929 14 19.6704 14.0922 19.5063 14.2563C19.3422 14.4204 19.25 14.6429 19.25 14.875V18.375C19.25 18.6071 19.1578 18.8296 18.9937 18.9937C18.8296 19.1578 18.6071 19.25 18.375 19.25H2.625C2.39294 19.25 2.17038 19.1578 2.00628 18.9937C1.84219 18.8296 1.75 18.6071 1.75 18.375V14.875C1.75 14.6429 1.65781 14.4204 1.49372 14.2563C1.32962 14.0922 1.10706 14 0.875 14C0.642936 14 0.420376 14.0922 0.256282 14.2563C0.0921872 14.4204 0 14.6429 0 14.875V18.375C0 19.0712 0.276562 19.7389 0.768845 20.2312C1.26113 20.7234 1.92881 21 2.625 21H18.375C19.0712 21 19.7389 20.7234 20.2312 20.2312C20.7234 19.7389 21 19.0712 21 18.375V14.875C21 14.6429 20.9078 14.4204 20.7437 14.2563C20.5796 14.0922 20.3571 14 20.125 14Z" fill="url(#paint1_linear_3_397)"/>
<defs>
<linearGradient id="paint0_linear_3_397" x1="0.369141" y1="8.94141" x2="21" y2="8.94141" gradientUnits="userSpaceOnUse">
<stop offset="0.322917" stop-color="#593697"/>
<stop offset="1" stop-color="#0A6BB8"/>
</linearGradient>
<linearGradient id="paint1_linear_3_397" x1="0.369141" y1="8.94141" x2="21" y2="8.94141" gradientUnits="userSpaceOnUse">
<stop offset="0.322917" stop-color="#593697"/>
<stop offset="1" stop-color="#0A6BB8"/>
</linearGradient>
</defs>
</svg>
