<svg width="20" height="20" viewBox="0 0 20 20" fill="none" xmlns="http://www.w3.org/2000/svg">
<path d="M19.1667 3.33333H10.8333V1.66667H12.5C12.721 1.66667 12.933 1.57887 13.0893 1.42259C13.2455 1.26631 13.3333 1.05435 13.3333 0.833333C13.3333 0.61232 13.2455 0.400358 13.0893 0.244078C12.933 0.0877974 12.721 0 12.5 0L7.5 0C7.27899 0 7.06702 0.0877974 6.91074 0.244078C6.75446 0.400358 6.66667 0.61232 6.66667 0.833333C6.66667 1.05435 6.75446 1.26631 6.91074 1.42259C7.06702 1.57887 7.27899 1.66667 7.5 1.66667H9.16667V3.33333H0.833333C0.61232 3.33333 0.400358 3.42113 0.244078 3.57741C0.0877974 3.73369 0 3.94565 0 4.16667C0 4.38768 0.0877974 4.59964 0.244078 4.75592C0.400358 4.9122 0.61232 5 0.833333 5H1.66667V15.8333C1.66799 16.938 2.1074 17.997 2.88852 18.7782C3.66963 19.5593 4.72867 19.9987 5.83333 20H14.1667C15.2713 19.9987 16.3304 19.5593 17.1115 18.7782C17.8926 17.997 18.332 16.938 18.3333 15.8333V5H19.1667C19.3877 5 19.5996 4.9122 19.7559 4.75592C19.9122 4.59964 20 4.38768 20 4.16667C20 3.94565 19.9122 3.73369 19.7559 3.57741C19.5996 3.42113 19.3877 3.33333 19.1667 3.33333ZM16.6667 15.8333C16.6667 16.4964 16.4033 17.1323 15.9344 17.6011C15.4656 18.0699 14.8297 18.3333 14.1667 18.3333H5.83333C5.17029 18.3333 4.53441 18.0699 4.06557 17.6011C3.59673 17.1323 3.33333 16.4964 3.33333 15.8333V5H16.6667V15.8333Z" fill="url(#paint0_linear_331_85)"/>
<defs>
<linearGradient id="paint0_linear_331_85" x1="0" y1="10" x2="20" y2="10" gradientUnits="userSpaceOnUse">
<stop stop-color="#593697"/>
<stop offset="1" stop-color="#0A6BB8"/>
</linearGradient>
</defs>
</svg>
