<?xml version="1.0" encoding="UTF-8"?><svg id="Layer_1" xmlns="http://www.w3.org/2000/svg" viewBox="0 0 256 256"><defs><style>.cls-1{fill:#ff4a28;}.cls-2{fill:#fff;}</style></defs><rect class="cls-1" x=".86" y=".5" width="256" height="256" rx="25" ry="25"/><g><path class="cls-2" d="M107.22,54.83c-.32,0-.61-.17-.76-.45-1.6-2.9-1.55-6.06,.13-8.9,3.23-5.46,11.73-8.86,22.19-8.86s18.97,3.39,22.19,8.86c1.68,2.84,1.72,6,.13,8.9-.15,.28-.44,.45-.76,.45h-43.12Z"/><path class="cls-1" d="M128.79,37.49c16.91,0,25.84,8.71,21.56,16.47h-43.12c-4.28-7.76,4.65-16.47,21.56-16.47m0-1.74c-10.77,0-19.56,3.56-22.94,9.28-1.84,3.12-1.89,6.58-.14,9.76,.31,.55,.89,.9,1.52,.9h43.12c.63,0,1.21-.34,1.52-.9,1.75-3.18,1.7-6.64-.14-9.76-3.38-5.73-12.17-9.28-22.94-9.28Z"/><path class="cls-1" d="M141.65,39.57c-2.42,4.23-10.79,7.35-20.75,7.35-4.84,0-9.3-.74-12.88-1.97-2.1,2.76-2.47,5.97-.78,9.02h43.12c3-5.44-.51-11.35-8.7-14.4Z"/><path class="cls-2" d="M128.85,212.15c-19.57-.19-29.88-9.07-30.31-9.45-.29-.25-.38-.67-.22-1.01,15.61-34.02,17.43-61.07,16.2-77.76-1.32-18.03-6.36-28.11-6.41-28.21-.14-.27-.12-.59,.03-.85,.16-.26,.44-.41,.74-.41h39.94c.3,0,.58,.16,.74,.41,.16,.26,.17,.58,.03,.85-.05,.1-5.11,10.26-6.42,28.32-1.21,16.67,.62,43.68,16.21,77.65,.16,.35,.07,.76-.22,1.01-.43,.38-10.74,9.26-30.31,9.45h-.02Z"/><path class="cls-1" d="M148.83,95.32h0m0,0s-20.59,40.53,9.77,106.72c0,0-10.28,9.04-29.75,9.24-19.47-.19-29.75-9.24-29.75-9.24,30.37-66.19,9.77-106.72,9.77-106.72h39.94m0-1.74h-39.94c-.6,0-1.16,.31-1.48,.83-.32,.51-.34,1.16-.07,1.69,.05,.1,5.05,10.18,6.33,28.1,1.18,16.55-.65,43.37-16.14,77.11-.32,.7-.14,1.52,.43,2.03,.44,.39,10.99,9.47,30.87,9.67h.03c19.88-.2,30.44-9.28,30.87-9.67,.58-.51,.75-1.33,.43-2.03-15.48-33.75-17.32-60.56-16.14-77.11,1.24-17.31,5.95-27.31,6.31-28.06,.13-.25,.21-.53,.21-.83,0-.96-.78-1.74-1.73-1.74Zm0,3.47h0Z"/><path class="cls-1" d="M128.86,211.28c19.47-.19,29.75-9.24,29.75-9.24-30.37-66.19-9.78-106.72-9.78-106.72h-39.94s2.56,5.05,4.55,14.49c2.53-15.82,54-18.17,3.92,100.25,3.38,.71,7.22,1.18,11.5,1.22Z"/><path class="cls-2" d="M128.86,83.77c-5.2,0-9.99-.57-13.15-1.57-.25-.08-.45-.26-.54-.51-2.26-5.65-9.92-24.59-13.69-30.92-.85-1.42-1.37-2.92-1.56-4.46-.04-.33,.11-.66,.4-.84,.14-.09,.3-.13,.46-.13s.33,.05,.47,.14c2.76,1.78,5.97,2.72,9.26,2.72,3.01,0,5.98-.8,8.58-2.3,.13-.08,.28-.12,.43-.12s.3,.04,.43,.12c2.6,1.51,5.57,2.3,8.58,2.3,3.42,0,6.72-1,9.55-2.9,.15-.1,.32-.15,.48-.15s.34,.05,.48,.15c2.83,1.9,6.13,2.9,9.55,2.9,2.74,0,5.37-.63,7.8-1.88,.12-.06,.26-.1,.4-.1,.19,0,.38,.06,.53,.18,.27,.21,.39,.55,.32,.87-.27,1.21-.74,2.38-1.4,3.5-3.77,6.33-11.44,25.27-13.7,30.92-.1,.24-.3,.43-.55,.51-3.16,.99-7.94,1.56-13.14,1.56Z"/><path class="cls-1" d="M138.56,46.02c2.87,1.93,6.32,3.05,10.04,3.05,2.95,0,5.74-.71,8.2-1.97-.24,1.08-.66,2.17-1.3,3.24-3.76,6.31-11.19,24.63-13.76,31.04-2.94,.93-7.61,1.52-12.88,1.52s-9.95-.6-12.89-1.53c-2.56-6.42-9.99-24.73-13.75-31.04-.81-1.36-1.28-2.74-1.45-4.12,2.81,1.8,6.14,2.85,9.73,2.85,3.28,0,6.36-.88,9.01-2.42,2.65,1.53,5.73,2.42,9.01,2.42,3.72,0,7.17-1.12,10.04-3.05m18.23,1.08h0m-18.24-2.81c-.34,0-.68,.1-.97,.29-2.69,1.8-5.82,2.76-9.07,2.76-2.86,0-5.67-.76-8.14-2.18-.27-.16-.57-.23-.87-.23s-.6,.08-.87,.23c-2.47,1.43-5.28,2.18-8.14,2.18-3.12,0-6.16-.89-8.79-2.58-.29-.18-.61-.28-.94-.28-.32,0-.64,.09-.92,.27-.57,.36-.88,1.01-.8,1.68,.2,1.65,.77,3.27,1.68,4.79,3.74,6.27,11.38,25.16,13.63,30.8,.19,.48,.59,.85,1.09,1.01,3.24,1.02,8.12,1.61,13.41,1.61s10.16-.58,13.4-1.6c.5-.16,.9-.53,1.09-1.01,2.25-5.64,9.89-24.52,13.63-30.8,.7-1.17,1.19-2.4,1.48-3.67,.04-.14,.06-.3,.06-.45,0-.96-.77-1.73-1.73-1.74h-.06c-.28,0-.53,.08-.76,.21-2.3,1.17-4.79,1.77-7.38,1.77-3.25,0-6.38-.95-9.07-2.76-.29-.2-.63-.29-.97-.29Z"/><path class="cls-2" d="M128.86,99.41c-12.08,0-24.57-3.49-24.57-9.32,0-2.4,2.11-4.56,6.11-6.25,.11-.05,.22-.07,.34-.07,.31,0,.61,.17,.77,.46,.21,.4,.08,.89-.29,1.13-.56,.36-.76,.67-.76,.83,0,1.25,6.5,3.69,18.4,3.69s18.4-2.44,18.4-3.69c0-.16-.2-.47-.76-.83-.38-.25-.5-.74-.29-1.13,.15-.29,.45-.46,.77-.46,.11,0,.23,.02,.34,.07,4,1.69,6.11,3.85,6.11,6.25,0,5.83-12.49,9.32-24.57,9.32Z"/><path class="cls-1" d="M146.98,84.64c3.48,1.47,5.58,3.37,5.58,5.45,0,4.67-10.61,8.45-23.7,8.45s-23.7-3.78-23.7-8.45c0-2.08,2.1-3.98,5.58-5.45-.74,.49-1.15,1.01-1.15,1.56,0,2.52,8.63,4.56,19.27,4.56s19.27-2.04,19.27-4.56c0-.55-.41-1.07-1.15-1.56m0-1.74c-.62,0-1.22,.34-1.53,.92-.42,.79-.17,1.78,.58,2.27,.06,.04,.12,.08,.17,.12-1.38,1.08-7.28,2.81-17.34,2.81s-15.96-1.73-17.34-2.81c.05-.04,.1-.07,.17-.12,.75-.49,1.01-1.48,.58-2.27-.31-.58-.91-.92-1.53-.92-.23,0-.45,.04-.67,.14-5.49,2.32-6.64,5.11-6.64,7.04,0,2.16,1.4,5.23,8.1,7.61,4.66,1.66,10.82,2.58,17.34,2.58s12.68-.91,17.34-2.58c6.69-2.39,8.1-5.46,8.1-7.61,0-1.93-1.15-4.72-6.64-7.04-.22-.09-.45-.14-.67-.14Z"/><path class="cls-1" d="M146.98,84.64c.74,.49,1.15,1.01,1.15,1.56,0,.7-.67,1.36-1.86,1.96,7.46,3.43-14.53,14.21-39.47,5.02,3.46,3.14,12.03,5.36,22.06,5.36,13.09,0,23.7-3.78,23.7-8.45,0-2.08-2.1-3.98-5.58-5.45Z"/><path class="cls-2" d="M128.86,92.46c-10.02,0-20.67-2.78-20.67-7.93,0-2.06,1.8-3.91,5.19-5.35,.11-.05,.22-.07,.34-.07,.31,0,.61,.17,.77,.46,.21,.4,.08,.89-.29,1.13-.46,.3-.57,.52-.57,.57,0,.88,5.18,2.94,15.23,2.94s15.23-2.06,15.23-2.94c0-.05-.1-.27-.57-.57-.38-.25-.5-.74-.29-1.13,.15-.29,.45-.46,.77-.46,.11,0,.23,.02,.34,.07,3.4,1.44,5.19,3.29,5.19,5.35,0,5.15-10.65,7.93-20.67,7.93Z"/><path class="cls-1" d="M144,79.98c2.91,1.23,4.66,2.82,4.66,4.55,0,3.9-8.86,7.06-19.8,7.06s-19.8-3.16-19.8-7.06c0-1.73,1.76-3.32,4.66-4.55-.62,.41-.96,.84-.96,1.3,0,2.1,7.21,3.81,16.1,3.81s16.1-1.71,16.1-3.81c0-.46-.34-.89-.96-1.3m-30.27-1.74c-.23,0-.45,.04-.67,.14-4.73,2-5.72,4.45-5.72,6.15,0,5.77,10.83,8.8,21.54,8.8s21.54-3.02,21.54-8.8c0-1.7-.99-4.15-5.72-6.15-.22-.09-.45-.14-.67-.14-.62,0-1.22,.34-1.53,.92-.38,.71-.21,1.58,.37,2.11-1.56,.86-6.37,2.08-13.98,2.08s-12.42-1.22-13.98-2.08c.59-.52,.75-1.39,.37-2.11-.31-.58-.91-.92-1.53-.92Z"/><path class="cls-1" d="M144,79.98c.62,.41,.96,.84,.96,1.3,0,.59-.56,1.14-1.56,1.64,6.23,2.87-12.14,11.87-32.97,4.2,2.89,2.62,10.05,4.48,18.43,4.48,10.94,0,19.8-3.16,19.8-7.06,0-1.73-1.76-3.32-4.66-4.55Z"/><path class="cls-1" d="M163.72,206.53c6.7,2.83,10.74,6.48,10.74,10.48,0,8.98-20.42,16.26-45.6,16.26s-45.6-7.28-45.6-16.26c0-3.99,4.04-7.65,10.74-10.48-1.43,.93-2.22,1.94-2.22,2.99,0,4.85,16.6,8.78,37.07,8.78s37.07-3.93,37.07-8.78c0-1.05-.78-2.06-2.22-2.99m0-1.74c-.62,0-1.22,.34-1.53,.92-.42,.79-.17,1.78,.58,2.27,1.05,.69,1.43,1.26,1.43,1.54,0,.59-1.75,2.68-9.52,4.52-6.88,1.63-16.04,2.52-25.82,2.52s-18.94-.9-25.82-2.52c-7.77-1.84-9.52-3.93-9.52-4.52,0-.28,.37-.85,1.43-1.54,.75-.49,1.01-1.48,.58-2.27-.31-.58-.91-.92-1.53-.92-.23,0-.46,.04-.67,.14-7.72,3.26-11.8,7.44-11.8,12.08,0,5.13,5.15,9.8,14.51,13.13,8.8,3.14,20.45,4.86,32.83,4.86s24.03-1.73,32.83-4.86c9.36-3.34,14.51-8,14.51-13.13,0-4.64-4.08-8.81-11.8-12.08-.22-.09-.45-.14-.67-.14Z"/><path class="cls-2" d="M128.86,220.76c-21.85,0-38.96-6.35-38.96-14.45,0-3.43,2.98-6.6,8.62-9.17,.11-.05,.26-.09,.39-.09,.32,0,.63,.18,.78,.47,.26,.49,0,.88-.26,1.26-.16,.24-.67,.98-.67,1.28,0,2.7,11.45,6.46,30.1,6.46s30.1-3.76,30.1-6.46c0-.53-.52-1.16-1.46-1.77-.38-.25-.5-.74-.29-1.13,.15-.29,.45-.46,.77-.46,.11,0,.23,.02,.34,.07,6.22,2.63,9.5,5.93,9.5,9.55,0,8.1-17.11,14.45-38.96,14.45Z"/><path class="cls-1" d="M157.98,197.56c5.6,2.36,8.97,5.42,8.97,8.75,0,7.5-17.05,13.58-38.09,13.58s-38.09-6.08-38.09-13.58c0-3.16,3.03-6.07,8.11-8.38h.03c.14,0-1.02,1.28-1.02,2.12,0,4.05,13.87,7.33,30.97,7.33s30.97-3.28,30.97-7.33c0-.88-.65-1.72-1.85-2.5m0-1.74c-.62,0-1.22,.34-1.53,.92-.42,.79-.17,1.78,.58,2.27,.88,.58,1.06,.97,1.06,1.05,0,.33-1.38,1.99-7.74,3.49-5.72,1.35-13.36,2.1-21.5,2.1s-15.78-.75-21.5-2.1c-6.05-1.43-7.59-3-7.72-3.44,.09-.24,.39-.67,.51-.85,.28-.42,.81-1.2,.31-2.15-.3-.57-.9-.93-1.54-.93-.26,0-.51,.06-.75,.16-7.54,3.43-9.13,7.31-9.13,9.96,0,4.42,4.37,8.41,12.31,11.24,7.38,2.63,17.15,4.08,27.52,4.08s20.14-1.45,27.52-4.08c7.94-2.83,12.31-6.82,12.31-11.24,0-2.79-1.74-6.85-10.03-10.35-.22-.09-.45-.14-.67-.14Z"/><path class="cls-1" d="M157.98,197.56c1.2,.78,1.85,1.62,1.85,2.5,0,1.13-1.08,2.19-3,3.15,11.98,5.52-23.35,22.84-63.43,8.07,5.56,5.04,19.33,8.62,35.45,8.62,21.04,0,38.09-6.08,38.09-13.58,0-3.34-3.38-6.39-8.97-8.75Z"/><path class="cls-1" d="M122.89,52.88c23.95,7.99,10.56,30.76,10.56,30.76l8.29-2.25s9.16-23.34,13.76-31.04c.27-.46,.5-.92,.7-1.39-10.66,8.81-14.88,1.49-33.3,3.93Z"/></g></svg>