<svg width="19" height="18" viewBox="0 0 19 18" fill="none" xmlns="http://www.w3.org/2000/svg">
<path d="M1.17332 11.7868L6.33333 17.0001C6.45728 17.1251 6.60475 17.2243 6.76723 17.292C6.92971 17.3597 7.10398 17.3945 7.28 17.3945C7.45601 17.3945 7.63029 17.3597 7.79277 17.292C7.95525 17.2243 8.10272 17.1251 8.22667 17.0001C8.475 16.7503 8.61439 16.4124 8.61439 16.0601C8.61439 15.7079 8.475 15.3699 8.22667 15.1201L3.47999 10.3335L17.6667 10.3335C18.0203 10.3335 18.3594 10.193 18.6095 9.94294C18.8595 9.69289 19 9.35375 19 9.00013C19 8.64651 18.8595 8.30737 18.6095 8.05732C18.3594 7.80727 18.0203 7.6668 17.6667 7.6668L3.39999 7.6668L8.22667 2.85346C8.35164 2.72951 8.45083 2.58205 8.51853 2.41957C8.58622 2.25709 8.62107 2.08281 8.62107 1.9068C8.62107 1.73078 8.58622 1.55651 8.51853 1.39403C8.45083 1.23155 8.35164 1.08408 8.22667 0.96013C8.10272 0.835158 7.95525 0.735967 7.79277 0.668275C7.63029 0.600583 7.45602 0.565734 7.28 0.565734C7.10398 0.565734 6.92971 0.600583 6.76723 0.668275C6.60475 0.735967 6.45728 0.835158 6.33333 0.96013L1.17332 6.13346C0.424254 6.88347 0.00351035 7.90013 0.00351026 8.96013C0.00351017 10.0201 0.424254 11.0368 1.17332 11.7868Z" fill="white"/>
</svg>
