<svg width="70" height="70" viewBox="0 0 70 70" fill="none" xmlns="http://www.w3.org/2000/svg">
<path d="M67.375 23.3333H59.71C57.855 20.1056 55.405 17.4222 52.5 15.4389V2.91667C52.5 1.32222 51.31 0 49.875 0C43.4 0 37.87 4.97778 36.295 11.7056H29.505C18.305 11.7056 9.03 20.7667 7.315 32.6667C6.16 31.3056 5.25 29.1667 5.25 27.2222V22.3611C5.25 20.7667 4.06 19.4444 2.625 19.4444C1.19 19.4444 0 20.7667 0 22.3611V27.2222C0 32.0833 2.94 37.6444 7.07 39.3167C7.595 46.3167 10.745 52.6944 15.75 56.9333V67.0833C15.75 68.6778 16.94 70 18.375 70H28.875C30.31 70 31.5 68.6778 31.5 67.0833V62.2222H38.5V67.0833C38.5 68.6778 39.69 70 41.125 70H51.625C53.06 70 54.25 68.6778 54.25 67.0833V57.1667C58.03 54.0556 60.76 49.7389 62.195 44.7222H67.375C68.81 44.7222 70 43.4 70 41.8056V26.25C70 24.6556 68.81 23.3333 67.375 23.3333ZM64.75 38.8889H60.165C58.94 38.8889 57.855 39.8611 57.61 41.1833C56.63 46.2 54.005 50.4389 50.19 53.2C49.455 53.7444 49 54.6778 49 55.65V64.1667H43.75V59.3056C43.75 57.7111 42.56 56.3889 41.125 56.3889H28.875C27.44 56.3889 26.25 57.7111 26.25 59.3056V64.1667H21V55.4167C21 54.4444 20.545 53.5111 19.81 52.9667C15.085 49.5056 12.25 43.5944 12.25 37.2167V36.7111C12.25 26.1333 19.985 17.5389 29.505 17.5389H38.535C39.9 17.5389 41.055 16.3722 41.16 14.8167C41.405 10.7722 43.925 7.46667 47.25 6.3V17.15C47.25 18.2389 47.81 19.25 48.685 19.7556C51.73 21.5056 54.25 24.2278 55.895 27.65C56.35 28.5833 57.225 29.1667 58.205 29.1667H64.75V38.8889Z" fill="#282828"/>
</svg>
