<svg width="50" height="50" viewBox="0 0 50 50" fill="none" xmlns="http://www.w3.org/2000/svg">
<path d="M11.4584 22.9167C5.1302 22.9167 0.00012207 17.7866 0.00012207 11.4583C0.00012207 5.12998 5.1302 0 11.4584 0C17.7866 0 22.9167 5.13008 22.9167 11.4583C22.9099 17.7838 17.7839 22.9098 11.4584 22.9167ZM11.4584 6.25C8.58196 6.25 6.25012 8.58184 6.25012 11.4583C6.25012 14.3348 8.58196 16.6666 11.4584 16.6666C14.3349 16.6666 16.6667 14.3348 16.6667 11.4583C16.6667 8.58184 14.335 6.25 11.4584 6.25Z" fill="#282828"/>
<path d="M38.5418 22.9167C32.2136 22.9167 27.0835 17.7866 27.0835 11.4584C27.0835 5.13018 32.2135 0 38.5418 0C44.8701 0 50.0001 5.13008 50.0001 11.4583C49.9932 17.7838 44.8672 22.9098 38.5418 22.9167ZM38.5418 6.25C35.6654 6.25 33.3335 8.58184 33.3335 11.4583C33.3335 14.3348 35.6654 16.6666 38.5418 16.6666C41.4183 16.6666 43.7501 14.3349 43.7501 11.4583C43.7501 8.58174 41.4183 6.25 38.5418 6.25Z" fill="#282828"/>
<path d="M11.4584 50C5.1302 50 0.00012207 44.8699 0.00012207 38.5417C0.00012207 32.2135 5.1302 27.0834 11.4584 27.0834C17.7866 27.0834 22.9167 32.2135 22.9167 38.5417C22.9099 44.8671 17.7839 49.9931 11.4584 50ZM11.4584 33.3333C8.58196 33.3333 6.25012 35.6651 6.25012 38.5417C6.25012 41.4183 8.58196 43.75 11.4584 43.75C14.3349 43.75 16.6667 41.4182 16.6667 38.5417C16.6667 35.6652 14.335 33.3333 11.4584 33.3333Z" fill="#282828"/>
<path d="M38.5418 50C32.2136 50 27.0835 44.8699 27.0835 38.5417C27.0835 32.2135 32.2136 27.0834 38.5418 27.0834C44.87 27.0834 50.0001 32.2134 50.0001 38.5417C49.9932 44.8671 44.8672 49.9931 38.5418 50ZM38.5418 33.3333C35.6654 33.3333 33.3335 35.6651 33.3335 38.5416C33.3335 41.4181 35.6653 43.75 38.5418 43.75C41.4184 43.75 43.7501 41.4182 43.7501 38.5417C43.7501 35.6652 41.4183 33.3333 38.5418 33.3333Z" fill="#282828"/>
</svg>
