<svg width="18" height="22" viewBox="0 0 18 22" fill="none" xmlns="http://www.w3.org/2000/svg">
<path d="M17.2395 2.99933L15.1839 0.836917C14.9314 0.572885 14.6298 0.362853 14.2966 0.219139C13.9634 0.0754255 13.6053 0.000922562 13.2435 0L9 0C7.96301 0.00133331 6.95819 0.366749 6.15487 1.03466C5.35156 1.70257 4.79889 2.63213 4.59 3.66667H4.5C3.30696 3.66812 2.1632 4.15148 1.3196 5.0107C0.475994 5.86993 0.00142907 7.03487 0 8.25V17.4167C0.00142907 18.6318 0.475994 19.7967 1.3196 20.656C2.1632 21.5152 3.30696 21.9985 4.5 22H9.9C11.093 21.9985 12.2368 21.5152 13.0804 20.656C13.924 19.7967 14.3986 18.6318 14.4 17.4167V17.325C15.4157 17.1122 16.3284 16.5493 16.9841 15.7311C17.6399 14.913 17.9987 13.8895 18 12.8333V4.91333C18.0013 4.19872 17.7284 3.51186 17.2395 2.99933ZM9.9 20.1667H4.5C3.78391 20.1667 3.09716 19.8769 2.59081 19.3612C2.08446 18.8455 1.8 18.146 1.8 17.4167V8.25C1.8 7.52065 2.08446 6.82118 2.59081 6.30546C3.09716 5.78973 3.78391 5.5 4.5 5.5V12.8333C4.50143 14.0485 4.97599 15.2134 5.8196 16.0726C6.6632 16.9319 7.80696 17.4152 9 17.4167H12.6C12.6 18.146 12.3155 18.8455 11.8092 19.3612C11.3028 19.8769 10.6161 20.1667 9.9 20.1667ZM13.5 15.5833H9C8.28391 15.5833 7.59716 15.2936 7.09081 14.7779C6.58446 14.2622 6.3 13.5627 6.3 12.8333V4.58333C6.3 3.85399 6.58446 3.15451 7.09081 2.63879C7.59716 2.12306 8.28391 1.83333 9 1.83333H12.6V3.66667C12.6 4.1529 12.7896 4.61921 13.1272 4.96303C13.4648 5.30685 13.9226 5.5 14.4 5.5H16.2V12.8333C16.2 13.5627 15.9155 14.2622 15.4092 14.7779C14.9028 15.2936 14.2161 15.5833 13.5 15.5833Z" fill="url(#paint0_linear_13_72)"/>
<defs>
<linearGradient id="paint0_linear_13_72" x1="-2.68221e-07" y1="11" x2="18" y2="11" gradientUnits="userSpaceOnUse">
<stop stop-color="#593697"/>
<stop offset="1" stop-color="#0A6BB8"/>
</linearGradient>
</defs>
</svg>
