<svg width="50" height="50" viewBox="0 0 50 50" fill="none" xmlns="http://www.w3.org/2000/svg">
<path d="M25.0092 12.5C21.9068 12.5017 18.9159 13.6571 16.618 15.7414C14.3201 17.8258 12.8794 20.6902 12.5761 23.7777C12.2727 26.8652 13.1283 29.9553 14.9766 32.447C16.8249 34.9387 19.5338 36.6541 22.5765 37.2596C25.0006 37.7487 27.5156 37.5009 29.7977 36.5481C32.4651 35.4367 34.6651 33.4354 36.0233 30.8848C37.3815 28.3342 37.814 25.3918 37.2472 22.5582C36.6805 19.7246 35.1496 17.1749 32.9149 15.3428C30.6801 13.5108 27.8797 12.5096 24.99 12.5096L25.0092 12.5ZM25.0092 50C19.2252 50.0021 13.6195 47.9986 9.14707 44.3309C4.67468 40.6631 1.61241 35.5581 0.482076 29.8856C-0.648258 24.2132 0.223242 18.3242 2.94813 13.2223C5.67302 8.12035 10.0827 4.12111 15.4257 1.906C20.7687 -0.309118 26.7146 -0.603009 32.25 1.07433C37.7854 2.75168 42.568 6.29646 45.7828 11.1048C48.9976 15.9131 50.4457 21.6873 49.8804 27.4436C49.315 33.1999 46.7712 38.5821 42.6823 42.6731C37.9958 47.362 31.6387 49.9976 25.0092 50V50ZM25.0092 6.25C20.669 6.24748 16.4621 7.75 13.1055 10.5016C9.74888 13.2531 7.45018 17.0835 6.60114 21.3399C5.75211 25.5963 6.40526 30.0155 8.44928 33.8443C10.4933 37.6731 13.8017 40.6747 17.8108 42.3377C21.8198 44.0006 26.2815 44.2219 30.4355 42.964C34.5895 41.706 38.1787 39.0467 40.5917 35.4389C43.0046 31.8312 44.092 27.4985 43.6684 23.1789C43.2449 18.8594 41.3366 14.8203 38.2688 11.75C34.7511 8.23388 29.9829 6.25604 25.0092 6.25V6.25Z" fill="url(#paint0_linear_13_385)"/>
<defs>
<linearGradient id="paint0_linear_13_385" x1="0.00915496" y1="25" x2="50.0092" y2="25" gradientUnits="userSpaceOnUse">
<stop stop-color="#593697"/>
<stop offset="1" stop-color="#0A6BB8"/>
</linearGradient>
</defs>
</svg>
