<svg width="20" height="20" viewBox="0 0 20 20" fill="none" xmlns="http://www.w3.org/2000/svg">
<path d="M2.58342 11.2645L4.06757 12.3485L2.94029 15.8396C2.75811 16.381 2.7558 16.9668 2.93371 17.5097C3.11161 18.0526 3.46019 18.5234 3.9275 18.852C4.38679 19.1912 4.94338 19.3729 5.51433 19.3701C6.08528 19.3672 6.64002 19.1799 7.0959 18.8362L9.99833 16.7L12.9016 18.8337C13.3601 19.1709 13.9136 19.3541 14.4828 19.3569C15.0519 19.3596 15.6072 19.1819 16.069 18.8491C16.5307 18.5164 16.875 18.0458 17.0524 17.505C17.2299 16.9643 17.2312 16.3812 17.0564 15.8396L15.9291 12.3485L18.8974 10.1806C19.3553 9.84585 19.6956 9.37495 19.8699 8.83519C20.0441 8.29543 20.0434 7.7144 19.8677 7.17511C19.692 6.63582 19.3503 6.16584 18.8916 5.8323C18.4328 5.49877 17.8804 5.31874 17.3132 5.31793H13.667L12.5606 1.86937C12.3866 1.32654 12.0447 0.852991 11.5842 0.517016C11.1237 0.181041 10.5684 0 9.99833 0C9.4283 0 8.87299 0.181041 8.41249 0.517016C7.95198 0.852991 7.61008 1.32654 7.43609 1.86937L6.32965 5.31793H2.68681C2.11962 5.31874 1.56719 5.49877 1.10843 5.8323C0.649667 6.16584 0.30804 6.63582 0.132344 7.17511C-0.0433522 7.7144 -0.0441299 8.29543 0.130122 8.83519C0.304374 9.37495 0.644742 9.84585 1.10261 10.1806L2.58342 11.2645Z" fill="url(#paint0_linear_38_324)"/>
<defs>
<linearGradient id="paint0_linear_38_324" x1="8.05144e-08" y1="10" x2="20" y2="10" gradientUnits="userSpaceOnUse">
<stop stop-color="#593697"/>
<stop offset="1" stop-color="#0A6BB8"/>
</linearGradient>
</defs>
</svg>
