<svg width="18" height="20" viewBox="0 0 18 20" fill="none" xmlns="http://www.w3.org/2000/svg">
<path d="M8.99728 6.6665C8.338 6.6665 7.69354 6.862 7.14538 7.22827C6.59721 7.59454 6.16997 8.11514 5.91768 8.72423C5.66538 9.33331 5.59937 10.0035 5.72799 10.6501C5.85661 11.2967 6.17408 11.8907 6.64025 12.3569C7.10643 12.823 7.70037 13.1405 8.34697 13.2691C8.99358 13.3977 9.6638 13.3317 10.2729 13.0794C10.882 12.8271 11.4026 12.3999 11.7688 11.8517C12.1351 11.3036 12.3306 10.6591 12.3306 9.99984C12.3306 9.11578 11.9794 8.26794 11.3543 7.64281C10.7292 7.01769 9.88133 6.6665 8.99728 6.6665ZM8.99728 11.6665C8.66764 11.6665 8.34541 11.5688 8.07133 11.3856C7.79724 11.2025 7.58362 10.9422 7.45748 10.6376C7.33133 10.3331 7.29832 9.99799 7.36263 9.67469C7.42694 9.35139 7.58568 9.05441 7.81876 8.82133C8.05185 8.58824 8.34882 8.4295 8.67213 8.3652C8.99543 8.30089 9.33054 8.33389 9.63508 8.46004C9.93962 8.58618 10.1999 8.79981 10.3831 9.07389C10.5662 9.34797 10.6639 9.6702 10.6639 9.99984C10.6639 10.4419 10.4883 10.8658 10.1758 11.1783C9.86323 11.4909 9.4393 11.6665 8.99728 11.6665Z" fill="#505050"/>
<path d="M16.7422 11.5833L16.3722 11.37C16.5388 10.4637 16.5388 9.53463 16.3722 8.62833L16.7422 8.415C17.0268 8.25085 17.2762 8.03226 17.4762 7.77172C17.6763 7.51118 17.8231 7.21378 17.9082 6.89651C17.9933 6.57925 18.0151 6.24832 17.9723 5.92263C17.9296 5.59694 17.823 5.28286 17.6589 4.99833C17.4947 4.7138 17.2762 4.46439 17.0156 4.26434C16.7551 4.06428 16.4577 3.91751 16.1404 3.83239C15.8231 3.74726 15.4922 3.72547 15.1665 3.76824C14.8408 3.81101 14.5268 3.91751 14.2422 4.08167L13.8714 4.29583C13.171 3.69743 12.3661 3.23354 11.4972 2.9275V2.5C11.4972 1.83696 11.2338 1.20107 10.765 0.732233C10.2962 0.263392 9.66027 0 8.99723 0C8.33419 0 7.6983 0.263392 7.22946 0.732233C6.76062 1.20107 6.49723 1.83696 6.49723 2.5V2.9275C5.62839 3.23464 4.82377 3.69967 4.1239 4.29917L3.75139 4.08333C3.17676 3.75181 2.49396 3.66214 1.85321 3.83405C1.21246 4.00596 0.666249 4.42536 0.334728 5C0.00320756 5.57464 -0.0864617 6.25743 0.0854467 6.89818C0.257355 7.53893 0.676759 8.08515 1.25139 8.41667L1.62139 8.63C1.45482 9.5363 1.45482 10.4654 1.62139 11.3717L1.25139 11.585C0.676759 11.9165 0.257355 12.4627 0.0854467 13.1035C-0.0864617 13.7442 0.00320756 14.427 0.334728 15.0017C0.666249 15.5763 1.21246 15.9957 1.85321 16.1676C2.49396 16.3395 3.17676 16.2499 3.75139 15.9183L4.12223 15.7042C4.82287 16.3027 5.62805 16.7666 6.49723 17.0725V17.5C6.49723 18.163 6.76062 18.7989 7.22946 19.2678C7.6983 19.7366 8.33419 20 8.99723 20C9.66027 20 10.2962 19.7366 10.765 19.2678C11.2338 18.7989 11.4972 18.163 11.4972 17.5V17.0725C12.3661 16.7654 13.1707 16.3003 13.8706 15.7008L14.2431 15.9158C14.8177 16.2474 15.5005 16.337 16.1412 16.1651C16.782 15.9932 17.3282 15.5738 17.6597 14.9992C17.9913 14.4245 18.0809 13.7417 17.909 13.101C17.7371 12.4602 17.3177 11.914 16.7431 11.5825L16.7422 11.5833ZM14.6189 8.43667C14.9011 9.45922 14.9011 10.5391 14.6189 11.5617C14.5696 11.7396 14.5809 11.9289 14.6508 12.0998C14.7208 12.2707 14.8456 12.4135 15.0056 12.5058L15.9089 13.0275C16.1004 13.138 16.2402 13.3201 16.2974 13.5336C16.3547 13.7472 16.3248 13.9747 16.2143 14.1663C16.1038 14.3578 15.9217 14.4975 15.7082 14.5548C15.4946 14.6121 15.2671 14.5822 15.0756 14.4717L14.1706 13.9483C14.0105 13.8556 13.8241 13.8188 13.6408 13.8437C13.4574 13.8686 13.2876 13.9538 13.1581 14.0858C12.4163 14.843 11.4819 15.3833 10.4556 15.6483C10.2764 15.6944 10.1177 15.7987 10.0044 15.9449C9.89108 16.0911 9.82964 16.2709 9.82973 16.4558V17.5C9.82973 17.721 9.74193 17.933 9.58565 18.0893C9.42937 18.2455 9.21741 18.3333 8.9964 18.3333C8.77538 18.3333 8.56342 18.2455 8.40714 18.0893C8.25086 17.933 8.16306 17.721 8.16306 17.5V16.4567C8.16315 16.2717 8.10171 16.092 7.9884 15.9458C7.87509 15.7996 7.71637 15.6952 7.53723 15.6492C6.51085 15.3831 5.57667 14.8416 4.83556 14.0833C4.706 13.9513 4.53618 13.8661 4.35286 13.8412C4.16954 13.8163 3.98315 13.8531 3.82306 13.9458L2.91973 14.4683C2.82492 14.5239 2.72005 14.5602 2.61117 14.5751C2.50228 14.59 2.39152 14.5832 2.28527 14.5551C2.17902 14.527 2.07938 14.4782 1.99208 14.4114C1.90478 14.3446 1.83154 14.2613 1.77659 14.1661C1.72164 14.0709 1.68606 13.9658 1.67189 13.8568C1.65773 13.7479 1.66526 13.6372 1.69405 13.5311C1.72285 13.425 1.77234 13.3257 1.83967 13.2389C1.90701 13.152 1.99086 13.0793 2.0864 13.025L2.98973 12.5033C3.14969 12.411 3.27446 12.2682 3.34444 12.0973C3.41443 11.9264 3.42567 11.7371 3.37639 11.5592C3.09419 10.5366 3.09419 9.45672 3.37639 8.43417C3.42478 8.25657 3.41301 8.06795 3.34291 7.89774C3.27281 7.72754 3.14832 7.58534 2.98889 7.49333L2.08556 6.97167C1.89405 6.86116 1.75429 6.6791 1.69701 6.46555C1.63973 6.25199 1.66964 6.02442 1.78014 5.83292C1.89065 5.64141 2.07271 5.50164 2.28627 5.44437C2.49982 5.38709 2.72739 5.41699 2.91889 5.5275L3.82389 6.05083C3.98354 6.14376 4.16955 6.18101 4.35267 6.15672C4.53579 6.13244 4.70565 6.048 4.83556 5.91667C5.5773 5.15945 6.51175 4.61918 7.53806 4.35417C7.71776 4.30797 7.87689 4.20313 7.99026 4.05625C8.10362 3.90938 8.16473 3.72887 8.1639 3.54333V2.5C8.1639 2.27899 8.25169 2.06702 8.40797 1.91074C8.56425 1.75446 8.77621 1.66667 8.99723 1.66667C9.21824 1.66667 9.4302 1.75446 9.58648 1.91074C9.74276 2.06702 9.83056 2.27899 9.83056 2.5V3.54333C9.83047 3.7283 9.89192 3.90804 10.0052 4.05423C10.1185 4.20043 10.2773 4.30478 10.4564 4.35083C11.4831 4.61679 12.4176 5.15824 13.1589 5.91667C13.2885 6.04872 13.4583 6.13391 13.6416 6.15881C13.8249 6.1837 14.0113 6.14689 14.1714 6.05417L15.0747 5.53167C15.1695 5.47609 15.2744 5.43981 15.3833 5.42492C15.4922 5.41003 15.6029 5.41683 15.7092 5.44492C15.8154 5.47301 15.9151 5.52184 16.0024 5.58859C16.0897 5.65535 16.1629 5.73872 16.2179 5.83389C16.2728 5.92907 16.3084 6.03417 16.3226 6.14316C16.3367 6.25214 16.3292 6.36285 16.3004 6.46891C16.2716 6.57497 16.2221 6.67429 16.1548 6.76114C16.0875 6.848 16.0036 6.92068 15.9081 6.975L15.0047 7.49667C14.8456 7.58892 14.7215 7.73123 14.6517 7.90141C14.5819 8.07159 14.5704 8.26008 14.6189 8.4375V8.43667Z" fill="#505050"/>
</svg>
