<svg width="20" height="21" viewBox="0 0 20 21" fill="none" xmlns="http://www.w3.org/2000/svg">
<path d="M9.44715 7C8.75491 7 8.07822 7.20527 7.50265 7.58986C6.92708 7.97444 6.47847 8.52107 6.21357 9.16061C5.94866 9.80015 5.87935 10.5039 6.0144 11.1828C6.14944 11.8617 6.48279 12.4854 6.97227 12.9749C7.46176 13.4644 8.0854 13.7977 8.76433 13.9327C9.44326 14.0678 10.147 13.9985 10.7865 13.7336C11.4261 13.4687 11.9727 13.0201 12.3573 12.4445C12.7419 11.8689 12.9471 11.1922 12.9471 10.5C12.9471 9.57174 12.5784 8.6815 11.922 8.02513C11.2656 7.36875 10.3754 7 9.44715 7ZM9.44715 12.25C9.10103 12.25 8.76268 12.1474 8.4749 11.9551C8.18711 11.7628 7.96281 11.4895 7.83036 11.1697C7.6979 10.8499 7.66325 10.4981 7.73077 10.1586C7.7983 9.81913 7.96497 9.50731 8.20971 9.26256C8.45445 9.01782 8.76627 8.85115 9.10574 8.78363C9.4452 8.7161 9.79707 8.75076 10.1168 8.88321C10.4366 9.01566 10.7099 9.23997 10.9022 9.52775C11.0945 9.81554 11.1971 10.1539 11.1971 10.5C11.1971 10.9641 11.0128 11.4092 10.6846 11.7374C10.3564 12.0656 9.91127 12.25 9.44715 12.25Z" fill="white"/>
<path d="M17.5793 12.1625L17.1908 11.9385C17.3657 10.9869 17.3657 10.0114 17.1908 9.05975L17.5793 8.83575C17.8781 8.66339 18.14 8.43387 18.35 8.1603C18.5601 7.88673 18.7142 7.57447 18.8036 7.24134C18.893 6.90821 18.9158 6.56074 18.8709 6.21876C18.826 5.87679 18.7142 5.54701 18.5418 5.24825C18.3695 4.94949 18.14 4.68761 17.8664 4.47755C17.5928 4.2675 17.2806 4.11338 16.9474 4.024C16.6143 3.93463 16.2668 3.91174 15.9249 3.95665C15.5829 4.00156 15.2531 4.11339 14.9543 4.28575L14.565 4.51063C13.8296 3.8823 12.9844 3.39522 12.0721 3.07387V2.625C12.0721 1.92881 11.7955 1.26113 11.3032 0.768845C10.811 0.276562 10.1433 0 9.44709 0C8.7509 0 8.08322 0.276562 7.59093 0.768845C7.09865 1.26113 6.82209 1.92881 6.82209 2.625V3.07387C5.9098 3.39637 5.06496 3.88465 4.33009 4.51412L3.93896 4.2875C3.3356 3.9394 2.61866 3.84525 1.94587 4.02575C1.27309 4.20626 0.699561 4.64663 0.351465 5.25C0.00336795 5.85337 -0.0907848 6.5703 0.089719 7.24309C0.270223 7.91588 0.710597 8.4894 1.31396 8.8375L1.70246 9.0615C1.52756 10.0131 1.52756 10.9886 1.70246 11.9403L1.31396 12.1643C0.710597 12.5123 0.270223 13.0859 0.089719 13.7587C-0.0907848 14.4314 0.00336795 15.1484 0.351465 15.7518C0.699561 16.3551 1.27309 16.7955 1.94587 16.976C2.61866 17.1565 3.3356 17.0623 3.93896 16.7142L4.32834 16.4894C5.06401 17.1178 5.90945 17.6049 6.82209 17.9261V18.375C6.82209 19.0712 7.09865 19.7389 7.59093 20.2312C8.08322 20.7234 8.7509 21 9.44709 21C10.1433 21 10.811 20.7234 11.3032 20.2312C11.7955 19.7389 12.0721 19.0712 12.0721 18.375V17.9261C12.9844 17.6036 13.8292 17.1153 14.5641 16.4859L14.9552 16.7116C15.5586 17.0597 16.2755 17.1539 16.9483 16.9734C17.6211 16.7929 18.1946 16.3525 18.5427 15.7491C18.8908 15.1458 18.985 14.4288 18.8045 13.756C18.624 13.0832 18.1836 12.5097 17.5802 12.1616L17.5793 12.1625ZM15.3498 8.8585C15.6462 9.93218 15.6462 11.0661 15.3498 12.1397C15.2981 12.3266 15.3099 12.5254 15.3834 12.7048C15.4569 12.8843 15.5879 13.0342 15.7558 13.1311L16.7043 13.6789C16.9054 13.7949 17.0522 13.9861 17.1123 14.2103C17.1725 14.4345 17.1411 14.6735 17.025 14.8746C16.909 15.0756 16.7178 15.2224 16.4936 15.2825C16.2694 15.3427 16.0304 15.3113 15.8293 15.1952L14.8791 14.6458C14.711 14.5484 14.5153 14.5097 14.3228 14.5359C14.1303 14.562 13.952 14.6515 13.816 14.7901C13.0371 15.5852 12.056 16.1525 10.9783 16.4307C10.7902 16.4791 10.6236 16.5887 10.5046 16.7422C10.3856 16.8957 10.3211 17.0844 10.3212 17.2786V18.375C10.3212 18.6071 10.229 18.8296 10.0649 18.9937C9.90084 19.1578 9.67828 19.25 9.44621 19.25C9.21415 19.25 8.99159 19.1578 8.8275 18.9937C8.6634 18.8296 8.57121 18.6071 8.57121 18.375V17.2795C8.57131 17.0853 8.50679 16.8966 8.38782 16.7431C8.26885 16.5895 8.10219 16.48 7.91409 16.4316C6.83639 16.1522 5.8555 15.5837 5.07734 14.7875C4.9413 14.6488 4.76299 14.5594 4.5705 14.5333C4.37802 14.5071 4.18231 14.5458 4.01421 14.6431L3.06571 15.1917C2.96617 15.2501 2.85606 15.2882 2.74172 15.3038C2.62739 15.3195 2.5111 15.3123 2.39954 15.2828C2.28797 15.2533 2.18335 15.2021 2.09168 15.132C2.00002 15.0619 1.92312 14.9743 1.86542 14.8744C1.80772 14.7745 1.77036 14.6641 1.75549 14.5497C1.74061 14.4353 1.74852 14.319 1.77876 14.2076C1.80899 14.0963 1.86095 13.992 1.93166 13.9008C2.00236 13.8096 2.0904 13.7333 2.19071 13.6763L3.13921 13.1285C3.30717 13.0316 3.43818 12.8816 3.51167 12.7022C3.58515 12.5228 3.59695 12.324 3.54521 12.1371C3.2489 11.0634 3.2489 9.92956 3.54521 8.85588C3.59602 8.6694 3.58366 8.47134 3.51005 8.29263C3.43645 8.11392 3.30574 7.9646 3.13834 7.868L2.18984 7.32025C1.98876 7.20422 1.842 7.01306 1.78186 6.78882C1.72172 6.56459 1.75312 6.32565 1.86915 6.12456C1.98518 5.92348 2.17634 5.77672 2.40058 5.71658C2.62481 5.65644 2.86376 5.68784 3.06484 5.80387L4.01509 6.35337C4.18272 6.45095 4.37802 6.49006 4.5703 6.46456C4.76258 6.43906 4.94094 6.3504 5.07734 6.2125C5.85617 5.41743 6.83734 4.85014 7.91496 4.57188C8.10364 4.52337 8.27074 4.41328 8.38977 4.25906C8.5088 4.10484 8.57297 3.91531 8.57209 3.7205V2.625C8.57209 2.39294 8.66428 2.17038 8.82837 2.00628C8.99247 1.84219 9.21503 1.75 9.44709 1.75C9.67915 1.75 9.90171 1.84219 10.0658 2.00628C10.2299 2.17038 10.3221 2.39294 10.3221 2.625V3.7205C10.322 3.91471 10.3865 4.10344 10.5055 4.25695C10.6245 4.41045 10.7911 4.52002 10.9792 4.56838C12.0572 4.84763 13.0384 5.41615 13.8168 6.2125C13.9529 6.35116 14.1312 6.44061 14.3237 6.46675C14.5162 6.49289 14.7119 6.45423 14.88 6.35687L15.8285 5.80825C15.928 5.74989 16.0381 5.7118 16.1525 5.69616C16.2668 5.68053 16.3831 5.68767 16.4946 5.71716C16.6062 5.74666 16.7108 5.79793 16.8025 5.86802C16.8942 5.93812 16.9711 6.02565 17.0288 6.12559C17.0865 6.22552 17.1238 6.33588 17.1387 6.45032C17.1536 6.56475 17.1457 6.68099 17.1154 6.79236C17.0852 6.90372 17.0332 7.008 16.9625 7.0992C16.8918 7.1904 16.8038 7.26672 16.7035 7.32375L15.755 7.8715C15.5879 7.96837 15.4575 8.11779 15.3843 8.29648C15.311 8.47517 15.2989 8.67309 15.3498 8.85938V8.8585Z" fill="white"/>
<circle cx="16.5" cy="6.5" r="3.5" fill="#FF2020"/>
</svg>
