<svg width="10" height="10" viewBox="0 0 10 10" fill="none" xmlns="http://www.w3.org/2000/svg">
<path d="M5 10C7.76142 10 10 7.76142 10 5C10 2.23858 7.76142 0 5 0C2.23858 0 0 2.23858 0 5C0 7.76142 2.23858 10 5 10Z" fill="#FFFFAB"/>
<path d="M2.56165 1.76123C2.56165 1.76123 2.70947 4.75408 2.56165 8.28434H3.83392C3.83392 8.28434 3.84887 4.3186 5.27485 4.33515C5.27485 4.33515 6.49377 4.30473 6.20825 8.28434H7.40314C7.40314 8.28434 7.68973 5.77607 6.97887 4.23535C6.87023 3.99542 6.70934 3.78281 6.50797 3.61305C6.3066 3.44329 6.06984 3.32068 5.815 3.25418C5.56015 3.18768 5.29367 3.17898 5.03503 3.2287C4.77638 3.27842 4.53213 3.38532 4.32011 3.54157C4.02598 3.75481 3.79419 4.04279 3.64874 4.3757L3.66101 1.76497L2.56165 1.76123Z" fill="url(#paint0_linear_0_1)"/>
<defs>
<linearGradient id="paint0_linear_0_1" x1="5.01228" y1="8.28434" x2="5.01228" y2="1.76123" gradientUnits="userSpaceOnUse">
<stop stop-color="#0E0DA7"/>
<stop offset="1" stop-color="#00004C"/>
</linearGradient>
</defs>
</svg>
