<svg width="360" height="259" viewBox="0 0 360 259" fill="none" xmlns="http://www.w3.org/2000/svg">
<path d="M-16.9697 260.231C151.529 262.317 314.786 201.83 483.727 217.373" stroke="url(#paint0_linear_2_12)" stroke-opacity="0.5" stroke-miterlimit="10"/>
<path d="M-16.9697 248.688C146.416 246.46 296.423 152.557 461.394 173.686" stroke="url(#paint1_linear_2_12)" stroke-opacity="0.5" stroke-miterlimit="10"/>
<path d="M-16.9697 238.131C142.661 231.188 274.861 103.255 438.261 129.727" stroke="url(#paint2_linear_2_12)" stroke-opacity="0.5" stroke-miterlimit="10"/>
<path d="M-16.9697 224.816C66.337 219.316 130.381 179.686 200.379 138.728C265.765 100.498 335.906 71.9544 412.944 85.769" stroke="url(#paint3_linear_2_12)" stroke-opacity="0.5" stroke-miterlimit="10"/>
<path d="M-16.9697 205.273C67.2794 199.372 125.426 153.457 190.897 105.727C252.299 60.9685 319.855 28.5818 397.564 44.7394" stroke="url(#paint4_linear_2_12)" stroke-opacity="0.5" stroke-miterlimit="10"/>
<path d="M386.293 6.97229C309.839 -9.71702 243.558 24.5921 185.884 72.331M185.884 72.331L185.442 71.7974M185.884 72.331C182.783 74.8972 179.702 77.4563 176.636 80.0031C117.876 128.804 64.5307 173.109 -16.9394 176.678L-17 175.294C63.992 171.746 116.999 127.727 175.833 78.8684C178.872 76.3448 181.926 73.8083 185.001 71.2638C242.791 23.4285 309.509 -11.2072 386.589 5.61874" stroke="url(#paint5_linear_2_12)" stroke-miterlimit="10"/>
<defs>
<linearGradient id="paint0_linear_2_12" x1="32.2126" y1="309.334" x2="1930.93" y2="309.334" gradientUnits="userSpaceOnUse">
<stop stop-color="#593697"/>
<stop offset="1" stop-color="#0A6BB8"/>
</linearGradient>
<linearGradient id="paint1_linear_2_12" x1="25.2855" y1="303.933" x2="1929.54" y2="303.933" gradientUnits="userSpaceOnUse">
<stop stop-color="#593697"/>
<stop offset="1" stop-color="#0A6BB8"/>
</linearGradient>
<linearGradient id="paint2_linear_2_12" x1="25.2855" y1="298.424" x2="1928.16" y2="298.424" gradientUnits="userSpaceOnUse">
<stop stop-color="#593697"/>
<stop offset="1" stop-color="#0A6BB8"/>
</linearGradient>
<linearGradient id="paint3_linear_2_12" x1="34.9834" y1="293.34" x2="1926.77" y2="293.34" gradientUnits="userSpaceOnUse">
<stop stop-color="#593697"/>
<stop offset="1" stop-color="#0A6BB8"/>
</linearGradient>
<linearGradient id="paint4_linear_2_12" x1="34.9834" y1="289.71" x2="1925.38" y2="289.71" gradientUnits="userSpaceOnUse">
<stop stop-color="#593697"/>
<stop offset="1" stop-color="#0A6BB8"/>
</linearGradient>
<linearGradient id="paint5_linear_2_12" x1="8.99999" y1="0.999937" x2="358.5" y2="0.999921" gradientUnits="userSpaceOnUse">
<stop stop-color="#593697"/>
<stop offset="1" stop-color="#0A6BB8"/>
</linearGradient>
</defs>
</svg>
