<svg width="133" height="40" viewBox="0 0 133 40" fill="none" xmlns="http://www.w3.org/2000/svg">
<path d="M20.5 40C31.8218 40 41 31.0457 41 20C41 8.95431 31.8218 0 20.5 0C9.17816 0 0 8.95431 0 20C0 31.0457 9.17816 40 20.5 40Z" fill="url(#paint0_linear_13_457)"/>
<path d="M32 23.6634V28.2511C31.9998 28.9802 31.697 29.6793 31.1582 30.1949C30.619 30.7103 29.8879 30.9999 29.1256 31H24.3333C22.9893 30.9991 21.6692 30.6598 20.5057 30.0164C19.3415 29.3729 18.3746 28.4482 17.7018 27.3348C18.4243 27.3298 19.1444 27.2537 19.8506 27.1077C20.3885 27.7506 21.0709 28.2694 21.8471 28.6255C22.6228 28.9824 23.4726 29.1676 24.3333 29.1674H29.1256C29.3797 29.167 29.6234 29.0708 29.8037 28.8996C29.9845 28.7279 30.0869 28.4948 30.0887 28.2511V23.6634C30.0883 22.8401 29.8941 22.0274 29.5203 21.2858C29.147 20.5431 28.6034 19.8905 27.93 19.3764C28.0844 18.7012 28.1656 18.0126 28.1724 17.3214C29.3366 17.9649 30.3035 18.8896 30.9764 20.0029C31.6473 21.1162 32.0003 22.3785 32 23.6634V23.6634ZM26.2283 17.8461C26.3185 16.6654 26.1414 15.4799 25.7091 14.3705C25.2774 13.2607 24.6003 12.2531 23.7241 11.4164C22.8492 10.5785 21.7956 9.93095 20.6351 9.51806C19.4754 9.10546 18.2365 8.93612 17.0024 9.02153C14.8145 9.26067 12.7934 10.2561 11.3192 11.8205C9.84563 13.3861 9.02088 15.4125 9 17.5188V22.1425C9 24.4622 10.4446 25.5023 11.876 25.5023H17.3382C19.5411 25.4835 21.6608 24.6953 23.2982 23.2859C24.9366 21.8756 25.9788 19.9407 26.2283 17.8461V17.8461ZM22.3696 12.7133C23.0495 13.3654 23.5751 14.1496 23.9108 15.0127C24.2475 15.876 24.3861 16.7986 24.317 17.7177C24.1099 19.3495 23.2877 20.8532 22.0043 21.9467C20.719 23.0416 19.0595 23.6493 17.3382 23.6556H11.876C10.9867 23.6556 10.9179 22.4871 10.9179 22.13V17.5188C10.9254 15.8727 11.5621 14.2861 12.708 13.0579C13.8518 11.8314 15.4241 11.0462 17.1302 10.8494C17.294 10.8385 17.4479 10.8338 17.6068 10.8338C18.4901 10.8326 19.3651 10.9981 20.1814 11.3209C20.9994 11.6431 21.7429 12.1162 22.3696 12.7133V12.7133Z" fill="white"/>
<path d="M61.6609 28.9214C56.3218 28.9214 53.3411 24.5186 53.3411 20.0166C53.3411 15.5145 56.3218 11.1117 61.6609 11.1117C64.1504 11.1117 66.1484 12.0717 67.5569 13.5614C67.8517 13.8593 68.3103 13.9255 68.6706 13.6938L69.9153 12.8662C70.3739 12.5683 70.4722 11.9062 70.0791 11.509C68.0155 9.32414 65.0675 8 61.6609 8C54.8806 8 50 13.2303 50 20.0166C50 26.8028 54.8806 32 61.6609 32C65.0675 32 68.0155 30.6759 70.0791 28.5241C70.4722 28.1269 70.3739 27.4648 69.9153 27.1669L68.6706 26.3393C68.3103 26.0745 67.8517 26.1407 67.5569 26.4717C66.1484 27.9614 64.1504 28.9214 61.6609 28.9214Z" fill="url(#paint1_linear_13_457)"/>
<path d="M81.8089 14.4221C79.2867 14.4221 77.6817 15.68 76.699 17.1697V9.32414C76.699 8.82759 76.306 8.43035 75.8146 8.43035H74.5699C74.1113 8.43035 73.7183 8.82759 73.7183 9.32414V30.709C73.7183 31.2055 74.1113 31.6028 74.5699 31.6028H75.8146C76.306 31.6028 76.699 31.2055 76.699 30.709V21.9697C76.699 20.0166 77.9437 17.269 81.0882 17.269C84.2 17.269 85.2154 19.6193 85.2154 21.9697V30.709C85.2154 31.2055 85.6085 31.6028 86.0671 31.6028H87.3118C87.8031 31.6028 88.1962 31.2055 88.1962 30.709V21.109C88.1962 17.5338 85.543 14.4221 81.8089 14.4221Z" fill="url(#paint2_linear_13_457)"/>
<path d="M105.794 15.7131V17.1697C104.582 15.6138 102.649 14.4221 99.7668 14.4221C94.5914 14.4221 91.5124 18.8248 91.5124 23.2276C91.5124 27.5972 94.5914 32 99.7668 32C102.649 32 104.582 30.8083 105.794 29.2524V30.709C105.794 31.2055 106.187 31.6028 106.678 31.6028H107.923C108.414 31.6028 108.807 31.2055 108.807 30.709V15.7131C108.807 15.2166 108.414 14.8193 107.923 14.8193H106.678C106.187 14.8193 105.794 15.2166 105.794 15.7131ZM100.062 29.1531C96.6223 29.1531 94.5587 26.6041 94.5587 23.2276C94.5587 19.8179 96.6223 17.269 100.062 17.269C103.73 17.269 105.794 19.8841 105.794 23.2276C105.794 26.5379 103.73 29.1531 100.062 29.1531Z" fill="url(#paint3_linear_13_457)"/>
<path d="M120.678 16.8055V15.7131C120.678 15.2166 120.285 14.8193 119.793 14.8193H116.813V12.171C116.813 11.7076 116.42 11.3103 115.928 11.3103H114.716C114.225 11.3103 113.832 11.7076 113.832 12.171V14.8193H111.867C111.375 14.8193 110.982 15.2166 110.982 15.7131V16.8055C110.982 17.3021 111.375 17.6993 111.867 17.6993H113.832V26.1076C113.832 29.8152 115.437 31.7683 119.073 31.7683C119.4 31.7683 119.728 31.7352 120.023 31.7021C120.383 31.669 120.678 31.371 120.678 30.9738V29.749C120.678 29.3186 120.318 28.9876 119.892 29.0207C119.761 29.0207 119.597 29.0207 119.433 29.0207C116.878 29.0207 116.813 27.4317 116.813 25.0483V17.6993H119.793C120.285 17.6993 120.678 17.3021 120.678 16.8055Z" fill="url(#paint4_linear_13_457)"/>
<path d="M127.432 17.7324V15.7131C127.432 15.2166 127.039 14.8193 126.58 14.8193H125.335C124.844 14.8193 124.451 15.2166 124.451 15.7131V30.709C124.451 31.2055 124.844 31.6028 125.335 31.6028H126.58C127.039 31.6028 127.432 31.2055 127.432 30.709V24.0883C127.432 21.109 128.021 17.5338 132.378 17.7655C132.705 17.7655 133 17.5007 133 17.1697V15.0179C133 14.6869 132.705 14.4221 132.345 14.4552C130.412 14.6207 128.447 15.68 127.432 17.7324Z" fill="url(#paint5_linear_13_457)"/>
<defs>
<linearGradient id="paint0_linear_13_457" x1="0" y1="20" x2="41" y2="20" gradientUnits="userSpaceOnUse">
<stop stop-color="#593697"/>
<stop offset="1" stop-color="#0A6BB8"/>
</linearGradient>
<linearGradient id="paint1_linear_13_457" x1="50" y1="20" x2="133" y2="20" gradientUnits="userSpaceOnUse">
<stop stop-color="#0A6BB8"/>
<stop offset="0.854167" stop-color="#593697"/>
</linearGradient>
<linearGradient id="paint2_linear_13_457" x1="50" y1="20" x2="133" y2="20" gradientUnits="userSpaceOnUse">
<stop stop-color="#0A6BB8"/>
<stop offset="0.854167" stop-color="#593697"/>
</linearGradient>
<linearGradient id="paint3_linear_13_457" x1="50" y1="20" x2="133" y2="20" gradientUnits="userSpaceOnUse">
<stop stop-color="#0A6BB8"/>
<stop offset="0.854167" stop-color="#593697"/>
</linearGradient>
<linearGradient id="paint4_linear_13_457" x1="50" y1="20" x2="133" y2="20" gradientUnits="userSpaceOnUse">
<stop stop-color="#0A6BB8"/>
<stop offset="0.854167" stop-color="#593697"/>
</linearGradient>
<linearGradient id="paint5_linear_13_457" x1="50" y1="20" x2="133" y2="20" gradientUnits="userSpaceOnUse">
<stop stop-color="#0A6BB8"/>
<stop offset="0.854167" stop-color="#593697"/>
</linearGradient>
</defs>
</svg>
