<svg width="18" height="21" viewBox="0 0 18 21" fill="none" xmlns="http://www.w3.org/2000/svg">
<path d="M14.875 7.371V6.125C14.875 4.50055 14.2297 2.94263 13.081 1.79397C11.9324 0.645311 10.3745 0 8.75 0C7.12555 0 5.56763 0.645311 4.41897 1.79397C3.27031 2.94263 2.625 4.50055 2.625 6.125V7.371C1.84569 7.71112 1.18238 8.27096 0.716187 8.98206C0.249992 9.69316 0.00111858 10.5247 0 11.375V16.625C0.00138938 17.7849 0.462772 18.8969 1.28294 19.7171C2.10311 20.5372 3.2151 20.9986 4.375 21H13.125C14.2849 20.9986 15.3969 20.5372 16.2171 19.7171C17.0372 18.8969 17.4986 17.7849 17.5 16.625V11.375C17.4989 10.5247 17.25 9.69316 16.7838 8.98206C16.3176 8.27096 15.6543 7.71112 14.875 7.371V7.371ZM4.375 6.125C4.375 4.96468 4.83594 3.85188 5.65641 3.03141C6.47688 2.21094 7.58968 1.75 8.75 1.75C9.91032 1.75 11.0231 2.21094 11.8436 3.03141C12.6641 3.85188 13.125 4.96468 13.125 6.125V7H4.375V6.125ZM15.75 16.625C15.75 17.3212 15.4734 17.9889 14.9812 18.4812C14.4889 18.9734 13.8212 19.25 13.125 19.25H4.375C3.67881 19.25 3.01113 18.9734 2.51885 18.4812C2.02656 17.9889 1.75 17.3212 1.75 16.625V11.375C1.75 10.6788 2.02656 10.0111 2.51885 9.51884C3.01113 9.02656 3.67881 8.75 4.375 8.75H13.125C13.8212 8.75 14.4889 9.02656 14.9812 9.51884C15.4734 10.0111 15.75 10.6788 15.75 11.375V16.625Z" fill="white"/>
<path d="M8.875 12.25C8.64294 12.25 8.42038 12.3422 8.25628 12.5063C8.09219 12.6704 8 12.8929 8 13.125V14.875C8 15.1071 8.09219 15.3296 8.25628 15.4937C8.42038 15.6578 8.64294 15.75 8.875 15.75C9.10706 15.75 9.32962 15.6578 9.49372 15.4937C9.65781 15.3296 9.75 15.1071 9.75 14.875V13.125C9.75 12.8929 9.65781 12.6704 9.49372 12.5063C9.32962 12.3422 9.10706 12.25 8.875 12.25Z" fill="white"/>
</svg>
