<?xml version="1.0" encoding="UTF-8" standalone="no"?>
<!-- Generator: Adobe Illustrator 16.0.0, SVG Export Plug-In . SVG Version: 6.00 Build 0)  -->

<svg
   version="1.1"
   id="Capa_1"
   x="0px"
   y="0px"
   width="483.27524"
   height="483.27524"
   viewBox="0 0 483.27524 483.27523"
   xml:space="preserve"
   sodipodi:docname="rotatingarrow.svg"
   inkscape:version="1.1.2 (b8e25be833, 2022-02-05)"
   xmlns:inkscape="http://www.inkscape.org/namespaces/inkscape"
   xmlns:sodipodi="http://sodipodi.sourceforge.net/DTD/sodipodi-0.dtd"
   xmlns="http://www.w3.org/2000/svg"
   xmlns:svg="http://www.w3.org/2000/svg"><defs
   id="defs365"><linearGradient
     id="paint0_linear_13_236"
     x1="2.78247e-07"
     y1="24.444401"
     x2="55"
     y2="24.444401"
     gradientUnits="userSpaceOnUse"><stop
       stop-color="#593697"
       id="stop420" /><stop
       offset="1"
       stop-color="#0A6BB8"
       id="stop422" /></linearGradient></defs><sodipodi:namedview
   id="namedview363"
   pagecolor="#ffffff"
   bordercolor="#666666"
   borderopacity="1.0"
   inkscape:pageshadow="2"
   inkscape:pageopacity="0.0"
   inkscape:pagecheckerboard="0"
   showgrid="false"
   fit-margin-top="0"
   fit-margin-left="0"
   fit-margin-right="0"
   fit-margin-bottom="0"
   inkscape:zoom="0.55475512"
   inkscape:cx="725.54535"
   inkscape:cy="445.24149"
   inkscape:window-width="1920"
   inkscape:window-height="1009"
   inkscape:window-x="1912"
   inkscape:window-y="-8"
   inkscape:window-maximized="1"
   inkscape:current-layer="g330" />
<g
   id="g330"
   transform="translate(2.9087545,7.1059347)">
	<path
   d="M 418.60119,84.188674 C 403.32288,66.104092 385.3095,50.353832 365.10015,37.551218 327.86912,13.961944 284.79163,1.4929459 240.52816,1.4929459 178.28082,1.4929459 119.75923,25.733187 75.743945,69.748469 31.728659,113.76375 7.4884113,172.28536 7.4884113,234.53168 c 0,62.24632 24.2402477,120.76996 68.2555337,164.78423 44.015285,44.01427 102.536875,68.2545 164.784215,68.2545 47.82647,0 93.79161,-14.38729 132.9267,-41.60671 38.21053,-26.57864 67.32893,-63.46384 84.20616,-106.66643 l -52.98638,-20.69963 c -26.59694,68.08974 -91.0311,112.08673 -164.14851,112.08673 -97.13186,0 -176.154728,-79.02185 -176.154728,-176.15472 0,-97.13287 79.023898,-176.153709 176.155738,-176.153709 49.16502,0 94.62769,19.975413 127.2806,54.216089 l -61.91474,34.62615 80.75098,48.10619 80.75199,48.10923 1.28463,-93.98586 1.28871,-93.985881 z"
   id="path328"
   style="fill:#ffffff;stroke-width:1.01713" />
</g>
<g
   id="g332"
   transform="translate(2.9087545,7.1059347)">
</g>
<g
   id="g334"
   transform="translate(2.9087545,7.1059347)">
</g>
<g
   id="g336"
   transform="translate(2.9087545,7.1059347)">
</g>
<g
   id="g338"
   transform="translate(2.9087545,7.1059347)">
</g>
<g
   id="g340"
   transform="translate(2.9087545,7.1059347)">
</g>
<g
   id="g342"
   transform="translate(2.9087545,7.1059347)">
</g>
<g
   id="g344"
   transform="translate(2.9087545,7.1059347)">
</g>
<g
   id="g346"
   transform="translate(2.9087545,7.1059347)">
</g>
<g
   id="g348"
   transform="translate(2.9087545,7.1059347)">
</g>
<g
   id="g350"
   transform="translate(2.9087545,7.1059347)">
</g>
<g
   id="g352"
   transform="translate(2.9087545,7.1059347)">
</g>
<g
   id="g354"
   transform="translate(2.9087545,7.1059347)">
</g>
<g
   id="g356"
   transform="translate(2.9087545,7.1059347)">
</g>
<g
   id="g358"
   transform="translate(2.9087545,7.1059347)">
</g>
<g
   id="g360"
   transform="translate(2.9087545,7.1059347)">
</g>
</svg>
