<svg width="23" height="23" viewBox="0 0 23 23" fill="none" xmlns="http://www.w3.org/2000/svg">
<path d="M21.7608 20.4646L16.2892 14.993C17.7802 13.1694 18.5134 10.8424 18.3369 8.49344C18.1604 6.14445 17.0878 3.95316 15.341 2.37282C13.5941 0.792476 11.3067 -0.0560076 8.95185 0.00287154C6.59697 0.0617507 4.35482 1.02349 2.68915 2.68915C1.02349 4.35482 0.0617507 6.59697 0.00287154 8.95185C-0.0560076 11.3067 0.792476 13.5941 2.37282 15.341C3.95316 17.0878 6.14445 18.1604 8.49344 18.3369C10.8424 18.5134 13.1694 17.7802 14.993 16.2892L20.4646 21.7608C20.6375 21.9277 20.869 22.0201 21.1094 22.018C21.3497 22.016 21.5796 21.9195 21.7496 21.7496C21.9195 21.5796 22.016 21.3497 22.018 21.1094C22.0201 20.869 21.9277 20.6375 21.7608 20.4646ZM9.19601 16.5293C7.74561 16.5293 6.32779 16.0992 5.12183 15.2935C3.91587 14.4877 2.97593 13.3423 2.42089 12.0024C1.86585 10.6624 1.72062 9.18787 2.00358 7.76535C2.28654 6.34282 2.98497 5.03614 4.01056 4.01056C5.03614 2.98497 6.34282 2.28654 7.76535 2.00358C9.18787 1.72062 10.6624 1.86585 12.0024 2.42089C13.3423 2.97593 14.4877 3.91587 15.2935 5.12183C16.0992 6.32779 16.5293 7.74561 16.5293 9.19601C16.5272 11.1403 15.7538 13.0043 14.379 14.379C13.0043 15.7538 11.1403 16.5272 9.19601 16.5293Z" fill="#505050"/>
</svg>
