<svg width="20" height="20" viewBox="0 0 20 20" fill="none" xmlns="http://www.w3.org/2000/svg">
<path d="M19.8598 7.17131C19.6893 6.62863 19.3487 6.15522 18.8883 5.82109C18.4279 5.48697 17.8723 5.30986 17.3035 5.31597H13.662L12.5559 1.86868C12.382 1.32605 12.0402 0.852677 11.5799 0.516825C11.1196 0.180974 10.5645 0 9.99465 0C9.42482 0 8.86972 0.180974 8.40939 0.516825C7.94905 0.852677 7.60728 1.32605 7.43335 1.86868L6.32732 5.31597H2.68582C2.11884 5.31678 1.56661 5.49674 1.10802 5.83015C0.649428 6.16357 0.307926 6.63337 0.132295 7.17247C-0.0433363 7.71156 -0.0441136 8.29237 0.130074 8.83194C0.304262 9.3715 0.644504 9.84222 1.1022 10.1769L4.06607 12.3439L2.9392 15.8337C2.7571 16.375 2.75479 16.9606 2.93263 17.5033C3.11046 18.0459 3.45892 18.5166 3.92605 18.8451C4.38517 19.1841 4.94156 19.3658 5.5123 19.3629C6.08303 19.3601 6.63757 19.1729 7.09329 18.8293L9.99465 16.6939L12.8968 18.8268C13.3551 19.1639 13.9085 19.347 14.4774 19.3497C15.0464 19.3525 15.6015 19.1748 16.0631 18.8422C16.5246 18.5096 16.8688 18.0391 17.0462 17.4986C17.2235 16.958 17.2249 16.3751 17.0501 15.8337L15.9232 12.3439L18.8904 10.1769C19.3534 9.84642 19.6976 9.37571 19.8722 8.8344C20.0468 8.29309 20.0424 7.70995 19.8598 7.17131ZM17.9069 8.83078L14.453 11.3554C14.3111 11.4589 14.2055 11.6046 14.1513 11.7716C14.0972 11.9386 14.0971 12.1185 14.1512 12.2856L15.464 16.3446C15.5304 16.5505 15.5298 16.7722 15.4624 16.9777C15.3949 17.1832 15.264 17.3621 15.0884 17.4885C14.9129 17.6149 14.7018 17.6825 14.4855 17.6813C14.2691 17.6802 14.0587 17.6106 13.8845 17.4823L10.4881 14.9819C10.345 14.8768 10.1721 14.8201 9.99465 14.8201C9.81715 14.8201 9.64428 14.8768 9.50122 14.9819L6.10478 17.4823C5.93065 17.6123 5.71965 17.6834 5.50239 17.6854C5.28512 17.6874 5.07287 17.6201 4.89641 17.4933C4.71996 17.3665 4.58846 17.1869 4.52099 16.9803C4.45351 16.7738 4.45357 16.5511 4.52116 16.3446L5.83806 12.2856C5.89217 12.1185 5.89213 11.9386 5.83795 11.7716C5.78376 11.6046 5.67821 11.4589 5.53634 11.3554L2.08238 8.83078C1.90844 8.70342 1.77919 8.52434 1.7131 8.31914C1.64701 8.11393 1.64746 7.89309 1.71438 7.68815C1.78131 7.48322 1.91129 7.30467 2.08575 7.17802C2.26021 7.05137 2.47024 6.98309 2.68582 6.98294H6.93659C7.11306 6.98294 7.28496 6.92693 7.42756 6.82298C7.57015 6.71903 7.67607 6.5725 7.73007 6.4045L9.02197 2.37794C9.08829 2.17189 9.21827 1.9922 9.39321 1.86472C9.56815 1.73725 9.77902 1.66857 9.99548 1.66857C10.2119 1.66857 10.4228 1.73725 10.5978 1.86472C10.7727 1.9922 10.9027 2.17189 10.969 2.37794L12.2609 6.4045C12.3149 6.5725 12.4208 6.71903 12.5634 6.82298C12.706 6.92693 12.8779 6.98294 13.0544 6.98294H17.3051C17.5207 6.98309 17.7308 7.05137 17.9052 7.17802C18.0797 7.30467 18.2097 7.48322 18.2766 7.68815C18.3435 7.89309 18.344 8.11393 18.2779 8.31914C18.2118 8.52434 18.0825 8.70342 17.9086 8.83078H17.9069Z" fill="url(#paint0_linear_38_326)"/>
<defs>
<linearGradient id="paint0_linear_38_326" x1="-2.7248e-07" y1="10" x2="20" y2="10" gradientUnits="userSpaceOnUse">
<stop offset="0.206888" stop-color="#593697"/>
<stop offset="1" stop-color="#0A6BB8"/>
</linearGradient>
</defs>
</svg>
