<svg width="16" height="21" viewBox="0 0 16 21" fill="none" xmlns="http://www.w3.org/2000/svg">
<path d="M8.25 10.5C9.28835 10.5 10.3034 10.1921 11.1667 9.61522C12.0301 9.03834 12.703 8.2184 13.1004 7.25909C13.4977 6.29978 13.6017 5.24418 13.3991 4.22578C13.1965 3.20738 12.6965 2.27192 11.9623 1.53769C11.2281 0.803466 10.2926 0.303452 9.27422 0.10088C8.25582 -0.101693 7.20022 0.00227475 6.24091 0.399635C5.2816 0.796995 4.46166 1.4699 3.88478 2.33326C3.30791 3.19662 3 4.21165 3 5.25C3.00139 6.64196 3.55496 7.97651 4.53922 8.96078C5.52349 9.94504 6.85804 10.4986 8.25 10.5ZM8.25 1.75C8.94223 1.75 9.61892 1.95527 10.1945 2.33986C10.7701 2.72444 11.2187 3.27107 11.4836 3.91061C11.7485 4.55015 11.8178 5.25388 11.6827 5.93282C11.5477 6.61175 11.2144 7.23539 10.7249 7.72488C10.2354 8.21436 9.61175 8.5477 8.93282 8.68275C8.25388 8.8178 7.55015 8.74849 6.91061 8.48358C6.27107 8.21867 5.72444 7.77007 5.33986 7.1945C4.95527 6.61893 4.75 5.94224 4.75 5.25C4.75 4.32174 5.11875 3.43151 5.77513 2.77513C6.4315 2.11875 7.32174 1.75 8.25 1.75V1.75Z" fill="white"/>
<path d="M7.875 12.25C5.78713 12.2523 3.78544 13.0827 2.30909 14.5591C0.832745 16.0354 0.002316 18.0371 0 20.125C0 20.3571 0.0921873 20.5796 0.256282 20.7437C0.420376 20.9078 0.642936 21 0.875 21C1.10706 21 1.32962 20.9078 1.49372 20.7437C1.65781 20.5796 1.75 20.3571 1.75 20.125C1.75 18.5005 2.39531 16.9426 3.54397 15.794C4.69263 14.6453 6.25055 14 7.875 14C9.49945 14 11.0574 14.6453 12.206 15.794C13.3547 16.9426 14 18.5005 14 20.125C14 20.3571 14.0922 20.5796 14.2563 20.7437C14.4204 20.9078 14.6429 21 14.875 21C15.1071 21 15.3296 20.9078 15.4937 20.7437C15.6578 20.5796 15.75 20.3571 15.75 20.125C15.7477 18.0371 14.9173 16.0354 13.4409 14.5591C11.9646 13.0827 9.96287 12.2523 7.875 12.25V12.25Z" fill="white"/>
</svg>
